G04 #@! TF.GenerationSoftware,KiCad,Pcbnew,7.0.2*
G04 #@! TF.CreationDate,2023-11-12T18:32:46-08:00*
G04 #@! TF.ProjectId,nomi_hw,6e6f6d69-5f68-4772-9e6b-696361645f70,rev?*
G04 #@! TF.SameCoordinates,Original*
G04 #@! TF.FileFunction,Legend,Top*
G04 #@! TF.FilePolarity,Positive*
%FSLAX46Y46*%
G04 Gerber Fmt 4.6, Leading zero omitted, Abs format (unit mm)*
G04 Created by KiCad (PCBNEW 7.0.2) date 2023-11-12 18:32:46*
%MOMM*%
%LPD*%
G01*
G04 APERTURE LIST*
%ADD10C,0.400000*%
%ADD11C,0.150000*%
%ADD12C,0.100000*%
%ADD13C,0.120000*%
%ADD14C,0.127000*%
%ADD15C,0.066040*%
G04 APERTURE END LIST*
D10*
G36*
X167971109Y-81660000D02*
G01*
X167585205Y-81660000D01*
X167031751Y-80253161D01*
X167405443Y-80253161D01*
X167695115Y-81068443D01*
X167781577Y-81331737D01*
X167867062Y-81079678D01*
X168159665Y-80253161D01*
X168519678Y-80253161D01*
X167971109Y-81660000D01*
G37*
G36*
X169359581Y-79847196D02*
G01*
X169386727Y-79848561D01*
X169413470Y-79850836D01*
X169439810Y-79854022D01*
X169465746Y-79858118D01*
X169491278Y-79863124D01*
X169516407Y-79869040D01*
X169541133Y-79875867D01*
X169565454Y-79883603D01*
X169589372Y-79892250D01*
X169605094Y-79898520D01*
X169628232Y-79908748D01*
X169650752Y-79920015D01*
X169672654Y-79932321D01*
X169693937Y-79945667D01*
X169714602Y-79960051D01*
X169734649Y-79975474D01*
X169754078Y-79991936D01*
X169772889Y-80009437D01*
X169791081Y-80027977D01*
X169808655Y-80047556D01*
X169820027Y-80061186D01*
X169836624Y-80082439D01*
X169852525Y-80104800D01*
X169867731Y-80128269D01*
X169882241Y-80152846D01*
X169896055Y-80178530D01*
X169904878Y-80196268D01*
X169913393Y-80214498D01*
X169921598Y-80233221D01*
X169929494Y-80252436D01*
X169937080Y-80272143D01*
X169944358Y-80292343D01*
X169951327Y-80313035D01*
X169957986Y-80334219D01*
X169961200Y-80344996D01*
X169967352Y-80366884D01*
X169973107Y-80389318D01*
X169978465Y-80412298D01*
X169983426Y-80435824D01*
X169987990Y-80459895D01*
X169992158Y-80484512D01*
X169995928Y-80509675D01*
X169999302Y-80535383D01*
X170002278Y-80561638D01*
X170004858Y-80588437D01*
X170007041Y-80615783D01*
X170008827Y-80643674D01*
X170010216Y-80672112D01*
X170011209Y-80701094D01*
X170011804Y-80730623D01*
X170012002Y-80760697D01*
X170011813Y-80787993D01*
X170011247Y-80814927D01*
X170010302Y-80841498D01*
X170008980Y-80867706D01*
X170007280Y-80893552D01*
X170005202Y-80919035D01*
X170002746Y-80944156D01*
X169999912Y-80968914D01*
X169996701Y-80993310D01*
X169993112Y-81017343D01*
X169989145Y-81041014D01*
X169984800Y-81064322D01*
X169980077Y-81087267D01*
X169974977Y-81109850D01*
X169969498Y-81132070D01*
X169963642Y-81153928D01*
X169957483Y-81175336D01*
X169950972Y-81196327D01*
X169944110Y-81216903D01*
X169936898Y-81237062D01*
X169929334Y-81256806D01*
X169921419Y-81276134D01*
X169913153Y-81295045D01*
X169904535Y-81313541D01*
X169895567Y-81331621D01*
X169886248Y-81349284D01*
X169876577Y-81366532D01*
X169866556Y-81383364D01*
X169850865Y-81407832D01*
X169834384Y-81431363D01*
X169822958Y-81446531D01*
X169805200Y-81468386D01*
X169786728Y-81489253D01*
X169767544Y-81509132D01*
X169747648Y-81528024D01*
X169727038Y-81545929D01*
X169705716Y-81562846D01*
X169683681Y-81578776D01*
X169660934Y-81593718D01*
X169637474Y-81607673D01*
X169613301Y-81620640D01*
X169596789Y-81628736D01*
X169571533Y-81639911D01*
X169545590Y-81649986D01*
X169518960Y-81658961D01*
X169491643Y-81666838D01*
X169463639Y-81673616D01*
X169434948Y-81679295D01*
X169415439Y-81682470D01*
X169395625Y-81685157D01*
X169375505Y-81687355D01*
X169355081Y-81689064D01*
X169334351Y-81690286D01*
X169313315Y-81691018D01*
X169291974Y-81691263D01*
X169264337Y-81690807D01*
X169237111Y-81689442D01*
X169210298Y-81687167D01*
X169183897Y-81683981D01*
X169157908Y-81679885D01*
X169132331Y-81674879D01*
X169107167Y-81668963D01*
X169082414Y-81662137D01*
X169058074Y-81654400D01*
X169034146Y-81645753D01*
X169018422Y-81639483D01*
X168995276Y-81629251D01*
X168972730Y-81617971D01*
X168950785Y-81605643D01*
X168929442Y-81592268D01*
X168908699Y-81577845D01*
X168888558Y-81562375D01*
X168869017Y-81545857D01*
X168850078Y-81528292D01*
X168831740Y-81509679D01*
X168814003Y-81490018D01*
X168802512Y-81476329D01*
X168785915Y-81454905D01*
X168770014Y-81432400D01*
X168754809Y-81408812D01*
X168740298Y-81384142D01*
X168726484Y-81358391D01*
X168717661Y-81340622D01*
X168709147Y-81322373D01*
X168700942Y-81303643D01*
X168693046Y-81284431D01*
X168685459Y-81264739D01*
X168678181Y-81244566D01*
X168671213Y-81223912D01*
X168664553Y-81202778D01*
X168661339Y-81192030D01*
X168655187Y-81170088D01*
X168652550Y-81159790D01*
X169002302Y-81159790D01*
X169010859Y-81183029D01*
X169020042Y-81205116D01*
X169029853Y-81226053D01*
X169040290Y-81245840D01*
X169051354Y-81264476D01*
X169063044Y-81281961D01*
X169075362Y-81298296D01*
X169088306Y-81313480D01*
X169106541Y-81331936D01*
X169125889Y-81348346D01*
X169146207Y-81362771D01*
X169167349Y-81375273D01*
X169189316Y-81385852D01*
X169212107Y-81394508D01*
X169235722Y-81401239D01*
X169260162Y-81406048D01*
X169285426Y-81408933D01*
X169311514Y-81409895D01*
X169335230Y-81408941D01*
X169358445Y-81406079D01*
X169381159Y-81401308D01*
X169403372Y-81394630D01*
X169425084Y-81386043D01*
X169446296Y-81375548D01*
X169454640Y-81370816D01*
X169475112Y-81357638D01*
X169490854Y-81345704D01*
X169506032Y-81332534D01*
X169520644Y-81318128D01*
X169534692Y-81302485D01*
X169548175Y-81285605D01*
X169561093Y-81267489D01*
X169570411Y-81253091D01*
X169582288Y-81232658D01*
X169593492Y-81210928D01*
X169604025Y-81187901D01*
X169611484Y-81169779D01*
X169618565Y-81150927D01*
X169625269Y-81131345D01*
X169631594Y-81111033D01*
X169637542Y-81089992D01*
X169643112Y-81068220D01*
X169646615Y-81053300D01*
X169651504Y-81030304D01*
X169655911Y-81006560D01*
X169659838Y-80982070D01*
X169663285Y-80956832D01*
X169666250Y-80930847D01*
X169668734Y-80904116D01*
X169670738Y-80876637D01*
X169672260Y-80848411D01*
X169673302Y-80819438D01*
X169673730Y-80799708D01*
X169673943Y-80779646D01*
X169673970Y-80769490D01*
X169673604Y-80749829D01*
X169672505Y-80729923D01*
X169671406Y-80709895D01*
X169671039Y-80690844D01*
X169002302Y-81159790D01*
X168652550Y-81159790D01*
X168649433Y-81147616D01*
X168644074Y-81124613D01*
X168639113Y-81101080D01*
X168634549Y-81077017D01*
X168630382Y-81052423D01*
X168626611Y-81027298D01*
X168623237Y-81001643D01*
X168620261Y-80975457D01*
X168617681Y-80948741D01*
X168615498Y-80921495D01*
X168613712Y-80893718D01*
X168612323Y-80865411D01*
X168611331Y-80836573D01*
X168611050Y-80822735D01*
X168948569Y-80822735D01*
X168948981Y-80843389D01*
X168950218Y-80864317D01*
X168951500Y-80878422D01*
X169624633Y-80378213D01*
X169615382Y-80354892D01*
X169605582Y-80332738D01*
X169595232Y-80311752D01*
X169584333Y-80291934D01*
X169572884Y-80273284D01*
X169560886Y-80255802D01*
X169548338Y-80239487D01*
X169535240Y-80224340D01*
X169516922Y-80205961D01*
X169497627Y-80189658D01*
X169477408Y-80175232D01*
X169456319Y-80162730D01*
X169434360Y-80152151D01*
X169411531Y-80143496D01*
X169387832Y-80136764D01*
X169363263Y-80131955D01*
X169337823Y-80129070D01*
X169318173Y-80128168D01*
X169311514Y-80128108D01*
X169287669Y-80129039D01*
X169264373Y-80131829D01*
X169241626Y-80136480D01*
X169219427Y-80142992D01*
X169197776Y-80151364D01*
X169176675Y-80161596D01*
X169168387Y-80166210D01*
X169148197Y-80179119D01*
X169128841Y-80194031D01*
X169113958Y-80207403D01*
X169099608Y-80222058D01*
X169085793Y-80237995D01*
X169072513Y-80255214D01*
X169059766Y-80273715D01*
X169053593Y-80283447D01*
X169041702Y-80303856D01*
X169030451Y-80325518D01*
X169019842Y-80348431D01*
X169009874Y-80372595D01*
X169002819Y-80391540D01*
X168996124Y-80411190D01*
X168989790Y-80431543D01*
X168983816Y-80452600D01*
X168978203Y-80474362D01*
X168976413Y-80481772D01*
X168971437Y-80504507D01*
X168966950Y-80528014D01*
X168962953Y-80552294D01*
X168959445Y-80577347D01*
X168956427Y-80603173D01*
X168953898Y-80629772D01*
X168951859Y-80657143D01*
X168950309Y-80685287D01*
X168949249Y-80714204D01*
X168948814Y-80733912D01*
X168948596Y-80753963D01*
X168948569Y-80764117D01*
X168948569Y-80785148D01*
X168948569Y-80805256D01*
X168948569Y-80822735D01*
X168611050Y-80822735D01*
X168610735Y-80807205D01*
X168610537Y-80777306D01*
X168610728Y-80750012D01*
X168611300Y-80723084D01*
X168612254Y-80696523D01*
X168613590Y-80670327D01*
X168615307Y-80644499D01*
X168617406Y-80619036D01*
X168619887Y-80593941D01*
X168622749Y-80569211D01*
X168625993Y-80544848D01*
X168629618Y-80520851D01*
X168633625Y-80497220D01*
X168638014Y-80473956D01*
X168642785Y-80451058D01*
X168647937Y-80428527D01*
X168653470Y-80406362D01*
X168659385Y-80384563D01*
X168665659Y-80363099D01*
X168672269Y-80342057D01*
X168679215Y-80321440D01*
X168686496Y-80301246D01*
X168694114Y-80281476D01*
X168702067Y-80262129D01*
X168710356Y-80243206D01*
X168718981Y-80224706D01*
X168727941Y-80206631D01*
X168737238Y-80188978D01*
X168746870Y-80171750D01*
X168761948Y-80146701D01*
X168777782Y-80122605D01*
X168794372Y-80099463D01*
X168800069Y-80091960D01*
X168817749Y-80070023D01*
X168836168Y-80049090D01*
X168855324Y-80029162D01*
X168875220Y-80010238D01*
X168895854Y-79992319D01*
X168917226Y-79975405D01*
X168939336Y-79959495D01*
X168962185Y-79944590D01*
X168985773Y-79930690D01*
X169010099Y-79917794D01*
X169026727Y-79909755D01*
X169052319Y-79898494D01*
X169078539Y-79888340D01*
X169105385Y-79879294D01*
X169132858Y-79871356D01*
X169160958Y-79864525D01*
X169189684Y-79858802D01*
X169209184Y-79855602D01*
X169228962Y-79852894D01*
X169249018Y-79850679D01*
X169269353Y-79848956D01*
X169289967Y-79847725D01*
X169310859Y-79846987D01*
X169332030Y-79846741D01*
X169359581Y-79847196D01*
G37*
G36*
X170840963Y-81159790D02*
G01*
X170862286Y-81160529D01*
X170883026Y-81162744D01*
X170903181Y-81166436D01*
X170922753Y-81171605D01*
X170941741Y-81178251D01*
X170947941Y-81180795D01*
X170966145Y-81189204D01*
X170983387Y-81198678D01*
X171002287Y-81211077D01*
X171019878Y-81224925D01*
X171033914Y-81237948D01*
X171049171Y-81254180D01*
X171062886Y-81271674D01*
X171075057Y-81290431D01*
X171085686Y-81310450D01*
X171091067Y-81322456D01*
X171098040Y-81341015D01*
X171103569Y-81360054D01*
X171107657Y-81379574D01*
X171110301Y-81399576D01*
X171111503Y-81420058D01*
X171111584Y-81426992D01*
X171110862Y-81447119D01*
X171108698Y-81466834D01*
X171105092Y-81486137D01*
X171100043Y-81505027D01*
X171093552Y-81523506D01*
X171091067Y-81529574D01*
X171081320Y-81549957D01*
X171070030Y-81569217D01*
X171057197Y-81587356D01*
X171042822Y-81604373D01*
X171033914Y-81613593D01*
X171017445Y-81628493D01*
X170999667Y-81641990D01*
X170980580Y-81654085D01*
X170963177Y-81663336D01*
X170947941Y-81670258D01*
X170929148Y-81677396D01*
X170909770Y-81683058D01*
X170889809Y-81687242D01*
X170869264Y-81689950D01*
X170848135Y-81691181D01*
X170840963Y-81691263D01*
X170820521Y-81690524D01*
X170800594Y-81688309D01*
X170781182Y-81684617D01*
X170762286Y-81679447D01*
X170743905Y-81672801D01*
X170737892Y-81670258D01*
X170717509Y-81660367D01*
X170698248Y-81649073D01*
X170680110Y-81636378D01*
X170663093Y-81622279D01*
X170653872Y-81613593D01*
X170638996Y-81597218D01*
X170625569Y-81579720D01*
X170613591Y-81561100D01*
X170603062Y-81541359D01*
X170597697Y-81529574D01*
X170590724Y-81511233D01*
X170585194Y-81492479D01*
X170581107Y-81473314D01*
X170578463Y-81453736D01*
X170577260Y-81433747D01*
X170577180Y-81426992D01*
X170577902Y-81406349D01*
X170580065Y-81386188D01*
X170583672Y-81366507D01*
X170588721Y-81347308D01*
X170595212Y-81328589D01*
X170597697Y-81322456D01*
X170605923Y-81304601D01*
X170616865Y-81284943D01*
X170629257Y-81266547D01*
X170643099Y-81249413D01*
X170653872Y-81237948D01*
X170670248Y-81222858D01*
X170687746Y-81209217D01*
X170706366Y-81197025D01*
X170726107Y-81186283D01*
X170737892Y-81180795D01*
X170756101Y-81173657D01*
X170774826Y-81167995D01*
X170794066Y-81163811D01*
X170813821Y-81161103D01*
X170834091Y-81159872D01*
X170840963Y-81159790D01*
G37*
G36*
X172435086Y-79847196D02*
G01*
X172462233Y-79848561D01*
X172488976Y-79850836D01*
X172515316Y-79854022D01*
X172541252Y-79858118D01*
X172566784Y-79863124D01*
X172591913Y-79869040D01*
X172616639Y-79875867D01*
X172640960Y-79883603D01*
X172664878Y-79892250D01*
X172680600Y-79898520D01*
X172703738Y-79908748D01*
X172726258Y-79920015D01*
X172748160Y-79932321D01*
X172769443Y-79945667D01*
X172790108Y-79960051D01*
X172810155Y-79975474D01*
X172829584Y-79991936D01*
X172848394Y-80009437D01*
X172866587Y-80027977D01*
X172884161Y-80047556D01*
X172895533Y-80061186D01*
X172912130Y-80082439D01*
X172928031Y-80104800D01*
X172943237Y-80128269D01*
X172957747Y-80152846D01*
X172971561Y-80178530D01*
X172980384Y-80196268D01*
X172988899Y-80214498D01*
X172997104Y-80233221D01*
X173004999Y-80252436D01*
X173012586Y-80272143D01*
X173019864Y-80292343D01*
X173026832Y-80313035D01*
X173033492Y-80334219D01*
X173036706Y-80344996D01*
X173042858Y-80366884D01*
X173048613Y-80389318D01*
X173053971Y-80412298D01*
X173058932Y-80435824D01*
X173063496Y-80459895D01*
X173067663Y-80484512D01*
X173071434Y-80509675D01*
X173074808Y-80535383D01*
X173077784Y-80561638D01*
X173080364Y-80588437D01*
X173082547Y-80615783D01*
X173084333Y-80643674D01*
X173085722Y-80672112D01*
X173086714Y-80701094D01*
X173087310Y-80730623D01*
X173087508Y-80760697D01*
X173087319Y-80787993D01*
X173086753Y-80814927D01*
X173085808Y-80841498D01*
X173084486Y-80867706D01*
X173082786Y-80893552D01*
X173080708Y-80919035D01*
X173078252Y-80944156D01*
X173075418Y-80968914D01*
X173072207Y-80993310D01*
X173068618Y-81017343D01*
X173064651Y-81041014D01*
X173060306Y-81064322D01*
X173055583Y-81087267D01*
X173050483Y-81109850D01*
X173045004Y-81132070D01*
X173039148Y-81153928D01*
X173032989Y-81175336D01*
X173026478Y-81196327D01*
X173019616Y-81216903D01*
X173012404Y-81237062D01*
X173004840Y-81256806D01*
X172996925Y-81276134D01*
X172988659Y-81295045D01*
X172980041Y-81313541D01*
X172971073Y-81331621D01*
X172961754Y-81349284D01*
X172952083Y-81366532D01*
X172942062Y-81383364D01*
X172926371Y-81407832D01*
X172909890Y-81431363D01*
X172898464Y-81446531D01*
X172880706Y-81468386D01*
X172862234Y-81489253D01*
X172843050Y-81509132D01*
X172823154Y-81528024D01*
X172802544Y-81545929D01*
X172781222Y-81562846D01*
X172759187Y-81578776D01*
X172736440Y-81593718D01*
X172712979Y-81607673D01*
X172688807Y-81620640D01*
X172672295Y-81628736D01*
X172647039Y-81639911D01*
X172621096Y-81649986D01*
X172594466Y-81658961D01*
X172567149Y-81666838D01*
X172539145Y-81673616D01*
X172510454Y-81679295D01*
X172490945Y-81682470D01*
X172471131Y-81685157D01*
X172451011Y-81687355D01*
X172430587Y-81689064D01*
X172409856Y-81690286D01*
X172388821Y-81691018D01*
X172367480Y-81691263D01*
X172339843Y-81690807D01*
X172312617Y-81689442D01*
X172285804Y-81687167D01*
X172259403Y-81683981D01*
X172233414Y-81679885D01*
X172207837Y-81674879D01*
X172182672Y-81668963D01*
X172157920Y-81662137D01*
X172133580Y-81654400D01*
X172109651Y-81645753D01*
X172093928Y-81639483D01*
X172070782Y-81629251D01*
X172048236Y-81617971D01*
X172026291Y-81605643D01*
X172004948Y-81592268D01*
X171984205Y-81577845D01*
X171964064Y-81562375D01*
X171944523Y-81545857D01*
X171925584Y-81528292D01*
X171907246Y-81509679D01*
X171889509Y-81490018D01*
X171878018Y-81476329D01*
X171861421Y-81454905D01*
X171845520Y-81432400D01*
X171830314Y-81408812D01*
X171815804Y-81384142D01*
X171801990Y-81358391D01*
X171793167Y-81340622D01*
X171784652Y-81322373D01*
X171776447Y-81303643D01*
X171768552Y-81284431D01*
X171760965Y-81264739D01*
X171753687Y-81244566D01*
X171746719Y-81223912D01*
X171740059Y-81202778D01*
X171736845Y-81192030D01*
X171730693Y-81170088D01*
X171728056Y-81159790D01*
X172077808Y-81159790D01*
X172086365Y-81183029D01*
X172095548Y-81205116D01*
X172105359Y-81226053D01*
X172115796Y-81245840D01*
X172126860Y-81264476D01*
X172138550Y-81281961D01*
X172150868Y-81298296D01*
X172163812Y-81313480D01*
X172182047Y-81331936D01*
X172201395Y-81348346D01*
X172221713Y-81362771D01*
X172242855Y-81375273D01*
X172264822Y-81385852D01*
X172287613Y-81394508D01*
X172311228Y-81401239D01*
X172335668Y-81406048D01*
X172360932Y-81408933D01*
X172387020Y-81409895D01*
X172410736Y-81408941D01*
X172433951Y-81406079D01*
X172456665Y-81401308D01*
X172478878Y-81394630D01*
X172500590Y-81386043D01*
X172521802Y-81375548D01*
X172530146Y-81370816D01*
X172550618Y-81357638D01*
X172566360Y-81345704D01*
X172581538Y-81332534D01*
X172596150Y-81318128D01*
X172610198Y-81302485D01*
X172623681Y-81285605D01*
X172636599Y-81267489D01*
X172645917Y-81253091D01*
X172657793Y-81232658D01*
X172668998Y-81210928D01*
X172679531Y-81187901D01*
X172686990Y-81169779D01*
X172694071Y-81150927D01*
X172700774Y-81131345D01*
X172707100Y-81111033D01*
X172713048Y-81089992D01*
X172718618Y-81068220D01*
X172722121Y-81053300D01*
X172727010Y-81030304D01*
X172731417Y-81006560D01*
X172735344Y-80982070D01*
X172738790Y-80956832D01*
X172741756Y-80930847D01*
X172744240Y-80904116D01*
X172746244Y-80876637D01*
X172747766Y-80848411D01*
X172748808Y-80819438D01*
X172749236Y-80799708D01*
X172749449Y-80779646D01*
X172749476Y-80769490D01*
X172749110Y-80749829D01*
X172748011Y-80729923D01*
X172746912Y-80709895D01*
X172746545Y-80690844D01*
X172077808Y-81159790D01*
X171728056Y-81159790D01*
X171724938Y-81147616D01*
X171719580Y-81124613D01*
X171714619Y-81101080D01*
X171710055Y-81077017D01*
X171705887Y-81052423D01*
X171702117Y-81027298D01*
X171698743Y-81001643D01*
X171695767Y-80975457D01*
X171693187Y-80948741D01*
X171691004Y-80921495D01*
X171689218Y-80893718D01*
X171687829Y-80865411D01*
X171686837Y-80836573D01*
X171686556Y-80822735D01*
X172024075Y-80822735D01*
X172024487Y-80843389D01*
X172025724Y-80864317D01*
X172027006Y-80878422D01*
X172700139Y-80378213D01*
X172690888Y-80354892D01*
X172681088Y-80332738D01*
X172670738Y-80311752D01*
X172659839Y-80291934D01*
X172648390Y-80273284D01*
X172636392Y-80255802D01*
X172623844Y-80239487D01*
X172610746Y-80224340D01*
X172592428Y-80205961D01*
X172573133Y-80189658D01*
X172552914Y-80175232D01*
X172531825Y-80162730D01*
X172509866Y-80152151D01*
X172487037Y-80143496D01*
X172463338Y-80136764D01*
X172438769Y-80131955D01*
X172413329Y-80129070D01*
X172393679Y-80128168D01*
X172387020Y-80128108D01*
X172363175Y-80129039D01*
X172339879Y-80131829D01*
X172317131Y-80136480D01*
X172294933Y-80142992D01*
X172273282Y-80151364D01*
X172252181Y-80161596D01*
X172243893Y-80166210D01*
X172223703Y-80179119D01*
X172204347Y-80194031D01*
X172189464Y-80207403D01*
X172175114Y-80222058D01*
X172161299Y-80237995D01*
X172148019Y-80255214D01*
X172135272Y-80273715D01*
X172129099Y-80283447D01*
X172117208Y-80303856D01*
X172105957Y-80325518D01*
X172095348Y-80348431D01*
X172085380Y-80372595D01*
X172078324Y-80391540D01*
X172071630Y-80411190D01*
X172065296Y-80431543D01*
X172059322Y-80452600D01*
X172053709Y-80474362D01*
X172051919Y-80481772D01*
X172046943Y-80504507D01*
X172042456Y-80528014D01*
X172038459Y-80552294D01*
X172034951Y-80577347D01*
X172031933Y-80603173D01*
X172029404Y-80629772D01*
X172027365Y-80657143D01*
X172025815Y-80685287D01*
X172024755Y-80714204D01*
X172024320Y-80733912D01*
X172024102Y-80753963D01*
X172024075Y-80764117D01*
X172024075Y-80785148D01*
X172024075Y-80805256D01*
X172024075Y-80822735D01*
X171686556Y-80822735D01*
X171686241Y-80807205D01*
X171686043Y-80777306D01*
X171686234Y-80750012D01*
X171686806Y-80723084D01*
X171687760Y-80696523D01*
X171689096Y-80670327D01*
X171690813Y-80644499D01*
X171692912Y-80619036D01*
X171695393Y-80593941D01*
X171698255Y-80569211D01*
X171701499Y-80544848D01*
X171705124Y-80520851D01*
X171709131Y-80497220D01*
X171713520Y-80473956D01*
X171718290Y-80451058D01*
X171723442Y-80428527D01*
X171728976Y-80406362D01*
X171734891Y-80384563D01*
X171741165Y-80363099D01*
X171747775Y-80342057D01*
X171754721Y-80321440D01*
X171762002Y-80301246D01*
X171769620Y-80281476D01*
X171777573Y-80262129D01*
X171785862Y-80243206D01*
X171794487Y-80224706D01*
X171803447Y-80206631D01*
X171812744Y-80188978D01*
X171822376Y-80171750D01*
X171837454Y-80146701D01*
X171853288Y-80122605D01*
X171869877Y-80099463D01*
X171875575Y-80091960D01*
X171893255Y-80070023D01*
X171911674Y-80049090D01*
X171930830Y-80029162D01*
X171950726Y-80010238D01*
X171971359Y-79992319D01*
X171992732Y-79975405D01*
X172014842Y-79959495D01*
X172037691Y-79944590D01*
X172061279Y-79930690D01*
X172085605Y-79917794D01*
X172102233Y-79909755D01*
X172127825Y-79898494D01*
X172154044Y-79888340D01*
X172180891Y-79879294D01*
X172208364Y-79871356D01*
X172236464Y-79864525D01*
X172265190Y-79858802D01*
X172284690Y-79855602D01*
X172304468Y-79852894D01*
X172324524Y-79850679D01*
X172344859Y-79848956D01*
X172365473Y-79847725D01*
X172386365Y-79846987D01*
X172407536Y-79846741D01*
X172435086Y-79847196D01*
G37*
G36*
X174866085Y-81660000D02*
G01*
X174866085Y-81409406D01*
X175290579Y-80992728D01*
X175305352Y-80978018D01*
X175319750Y-80963564D01*
X175333775Y-80949365D01*
X175354111Y-80928547D01*
X175373606Y-80908304D01*
X175392259Y-80888636D01*
X175410071Y-80869544D01*
X175427041Y-80851027D01*
X175443169Y-80833085D01*
X175458457Y-80815718D01*
X175472902Y-80798927D01*
X175482065Y-80788053D01*
X175495329Y-80772096D01*
X175508008Y-80756465D01*
X175524006Y-80736132D01*
X175538966Y-80716379D01*
X175552888Y-80697206D01*
X175565772Y-80678613D01*
X175577617Y-80660600D01*
X175588425Y-80643167D01*
X175593440Y-80634668D01*
X175604996Y-80613712D01*
X175615240Y-80593280D01*
X175624173Y-80573374D01*
X175631794Y-80553992D01*
X175638102Y-80535134D01*
X175643941Y-80513198D01*
X175644731Y-80509616D01*
X175649047Y-80488029D01*
X175652470Y-80466133D01*
X175655000Y-80443928D01*
X175656638Y-80421413D01*
X175657382Y-80398590D01*
X175657431Y-80390914D01*
X175656637Y-80370608D01*
X175654252Y-80350722D01*
X175650279Y-80331258D01*
X175644716Y-80312214D01*
X175640823Y-80301521D01*
X175632832Y-80283298D01*
X175621925Y-80263904D01*
X175609125Y-80246036D01*
X175594433Y-80229695D01*
X175592463Y-80227759D01*
X175575763Y-80212922D01*
X175559397Y-80201241D01*
X175541395Y-80190776D01*
X175521757Y-80181526D01*
X175512840Y-80177934D01*
X175491241Y-80170701D01*
X175471687Y-80165915D01*
X175451170Y-80162435D01*
X175429692Y-80160260D01*
X175407252Y-80159390D01*
X175403419Y-80159371D01*
X175383677Y-80159745D01*
X175357768Y-80161405D01*
X175332332Y-80164393D01*
X175307370Y-80168709D01*
X175282881Y-80174354D01*
X175258865Y-80181326D01*
X175235322Y-80189627D01*
X175212253Y-80199255D01*
X175206559Y-80201870D01*
X175184112Y-80212945D01*
X175161954Y-80224920D01*
X175140087Y-80237796D01*
X175118510Y-80251573D01*
X175097222Y-80266251D01*
X175081447Y-80277850D01*
X175065835Y-80289956D01*
X175050386Y-80302568D01*
X175035101Y-80315687D01*
X174857780Y-80086587D01*
X174872488Y-80073140D01*
X174887425Y-80060033D01*
X174902591Y-80047266D01*
X174917986Y-80034838D01*
X174933610Y-80022750D01*
X174949463Y-80011002D01*
X174965545Y-79999593D01*
X174981856Y-79988524D01*
X174998396Y-79977794D01*
X175015164Y-79967404D01*
X175032162Y-79957354D01*
X175049389Y-79947643D01*
X175066845Y-79938273D01*
X175084529Y-79929241D01*
X175102443Y-79920550D01*
X175120586Y-79912198D01*
X175138997Y-79904271D01*
X175157596Y-79896856D01*
X175176382Y-79889953D01*
X175195355Y-79883560D01*
X175214514Y-79877679D01*
X175233861Y-79872310D01*
X175253395Y-79867452D01*
X175273115Y-79863105D01*
X175293023Y-79859269D01*
X175313118Y-79855946D01*
X175333399Y-79853133D01*
X175353868Y-79850832D01*
X175374524Y-79849042D01*
X175395367Y-79847763D01*
X175416396Y-79846996D01*
X175437613Y-79846741D01*
X175462124Y-79847037D01*
X175486196Y-79847926D01*
X175509831Y-79849407D01*
X175533028Y-79851480D01*
X175555787Y-79854147D01*
X175578108Y-79857405D01*
X175599991Y-79861256D01*
X175621436Y-79865700D01*
X175642443Y-79870736D01*
X175663013Y-79876365D01*
X175676482Y-79880446D01*
X175696270Y-79886958D01*
X175715517Y-79894036D01*
X175734223Y-79901681D01*
X175752389Y-79909893D01*
X175770013Y-79918671D01*
X175792670Y-79931257D01*
X175814366Y-79944851D01*
X175835100Y-79959452D01*
X175854872Y-79975061D01*
X175859665Y-79979120D01*
X175878181Y-79995996D01*
X175895629Y-80013894D01*
X175912009Y-80032815D01*
X175927320Y-80052759D01*
X175941562Y-80073726D01*
X175954736Y-80095716D01*
X175966841Y-80118728D01*
X175975219Y-80136658D01*
X175977878Y-80142763D01*
X175985386Y-80161439D01*
X175992155Y-80180647D01*
X175998186Y-80200388D01*
X176003478Y-80220661D01*
X176008032Y-80241467D01*
X176011847Y-80262804D01*
X176014924Y-80284675D01*
X176017262Y-80307077D01*
X176018862Y-80330012D01*
X176019724Y-80353480D01*
X176019888Y-80369420D01*
X176019635Y-80389263D01*
X176018875Y-80408856D01*
X176017073Y-80434593D01*
X176014371Y-80459887D01*
X176010769Y-80484739D01*
X176006266Y-80509148D01*
X176000862Y-80533115D01*
X175994557Y-80556638D01*
X175991067Y-80568234D01*
X175983450Y-80591124D01*
X175975008Y-80613877D01*
X175965742Y-80636492D01*
X175955652Y-80658970D01*
X175944737Y-80681311D01*
X175932998Y-80703514D01*
X175920435Y-80725580D01*
X175907048Y-80747508D01*
X175892966Y-80769253D01*
X175881873Y-80785572D01*
X175870325Y-80801900D01*
X175858323Y-80818236D01*
X175845865Y-80834581D01*
X175832952Y-80850934D01*
X175819584Y-80867296D01*
X175805761Y-80883666D01*
X175791483Y-80900046D01*
X175776749Y-80916433D01*
X175771737Y-80921898D01*
X175756514Y-80938374D01*
X175740888Y-80955014D01*
X175724858Y-80971816D01*
X175708425Y-80988782D01*
X175691588Y-81005911D01*
X175674347Y-81023203D01*
X175656703Y-81040658D01*
X175638655Y-81058277D01*
X175620204Y-81076058D01*
X175601349Y-81094003D01*
X175588555Y-81106057D01*
X175327704Y-81347369D01*
X176084856Y-81347369D01*
X176084856Y-81660000D01*
X174866085Y-81660000D01*
G37*
G36*
X177048345Y-79847196D02*
G01*
X177075492Y-79848561D01*
X177102235Y-79850836D01*
X177128575Y-79854022D01*
X177154511Y-79858118D01*
X177180043Y-79863124D01*
X177205172Y-79869040D01*
X177229897Y-79875867D01*
X177254219Y-79883603D01*
X177278137Y-79892250D01*
X177293859Y-79898520D01*
X177316997Y-79908748D01*
X177339517Y-79920015D01*
X177361418Y-79932321D01*
X177382702Y-79945667D01*
X177403367Y-79960051D01*
X177423414Y-79975474D01*
X177442843Y-79991936D01*
X177461653Y-80009437D01*
X177479846Y-80027977D01*
X177497420Y-80047556D01*
X177508792Y-80061186D01*
X177525389Y-80082439D01*
X177541290Y-80104800D01*
X177556495Y-80128269D01*
X177571005Y-80152846D01*
X177584820Y-80178530D01*
X177593643Y-80196268D01*
X177602157Y-80214498D01*
X177610362Y-80233221D01*
X177618258Y-80252436D01*
X177625845Y-80272143D01*
X177633123Y-80292343D01*
X177640091Y-80313035D01*
X177646751Y-80334219D01*
X177649965Y-80344996D01*
X177656116Y-80366884D01*
X177661871Y-80389318D01*
X177667230Y-80412298D01*
X177672191Y-80435824D01*
X177676755Y-80459895D01*
X177680922Y-80484512D01*
X177684693Y-80509675D01*
X177688066Y-80535383D01*
X177691043Y-80561638D01*
X177693623Y-80588437D01*
X177695806Y-80615783D01*
X177697592Y-80643674D01*
X177698981Y-80672112D01*
X177699973Y-80701094D01*
X177700569Y-80730623D01*
X177700767Y-80760697D01*
X177700578Y-80787993D01*
X177700011Y-80814927D01*
X177699067Y-80841498D01*
X177697745Y-80867706D01*
X177696044Y-80893552D01*
X177693966Y-80919035D01*
X177691511Y-80944156D01*
X177688677Y-80968914D01*
X177685466Y-80993310D01*
X177681876Y-81017343D01*
X177677909Y-81041014D01*
X177673565Y-81064322D01*
X177668842Y-81087267D01*
X177663741Y-81109850D01*
X177658263Y-81132070D01*
X177652407Y-81153928D01*
X177646248Y-81175336D01*
X177639737Y-81196327D01*
X177632875Y-81216903D01*
X177625662Y-81237062D01*
X177618099Y-81256806D01*
X177610184Y-81276134D01*
X177601917Y-81295045D01*
X177593300Y-81313541D01*
X177584332Y-81331621D01*
X177575013Y-81349284D01*
X177565342Y-81366532D01*
X177555321Y-81383364D01*
X177539630Y-81407832D01*
X177523149Y-81431363D01*
X177511723Y-81446531D01*
X177493965Y-81468386D01*
X177475493Y-81489253D01*
X177456309Y-81509132D01*
X177436412Y-81528024D01*
X177415803Y-81545929D01*
X177394481Y-81562846D01*
X177372446Y-81578776D01*
X177349699Y-81593718D01*
X177326238Y-81607673D01*
X177302065Y-81620640D01*
X177285554Y-81628736D01*
X177260298Y-81639911D01*
X177234355Y-81649986D01*
X177207725Y-81658961D01*
X177180408Y-81666838D01*
X177152404Y-81673616D01*
X177123713Y-81679295D01*
X177104204Y-81682470D01*
X177084390Y-81685157D01*
X177064270Y-81687355D01*
X177043845Y-81689064D01*
X177023115Y-81690286D01*
X177002080Y-81691018D01*
X176980739Y-81691263D01*
X176953102Y-81690807D01*
X176925876Y-81689442D01*
X176899063Y-81687167D01*
X176872662Y-81683981D01*
X176846673Y-81679885D01*
X176821096Y-81674879D01*
X176795931Y-81668963D01*
X176771179Y-81662137D01*
X176746839Y-81654400D01*
X176722910Y-81645753D01*
X176707187Y-81639483D01*
X176684040Y-81629251D01*
X176661495Y-81617971D01*
X176639550Y-81605643D01*
X176618206Y-81592268D01*
X176597464Y-81577845D01*
X176577323Y-81562375D01*
X176557782Y-81545857D01*
X176538843Y-81528292D01*
X176520505Y-81509679D01*
X176502767Y-81490018D01*
X176491277Y-81476329D01*
X176474680Y-81454905D01*
X176458779Y-81432400D01*
X176443573Y-81408812D01*
X176429063Y-81384142D01*
X176415249Y-81358391D01*
X176406426Y-81340622D01*
X176397911Y-81322373D01*
X176389706Y-81303643D01*
X176381810Y-81284431D01*
X176374224Y-81264739D01*
X176366946Y-81244566D01*
X176359977Y-81223912D01*
X176353318Y-81202778D01*
X176350104Y-81192030D01*
X176343952Y-81170088D01*
X176341315Y-81159790D01*
X176691067Y-81159790D01*
X176699624Y-81183029D01*
X176708807Y-81205116D01*
X176718617Y-81226053D01*
X176729055Y-81245840D01*
X176740119Y-81264476D01*
X176751809Y-81281961D01*
X176764127Y-81298296D01*
X176777071Y-81313480D01*
X176795305Y-81331936D01*
X176814654Y-81348346D01*
X176834972Y-81362771D01*
X176856114Y-81375273D01*
X176878081Y-81385852D01*
X176900872Y-81394508D01*
X176924487Y-81401239D01*
X176948927Y-81406048D01*
X176974190Y-81408933D01*
X177000279Y-81409895D01*
X177023995Y-81408941D01*
X177047210Y-81406079D01*
X177069924Y-81401308D01*
X177092137Y-81394630D01*
X177113849Y-81386043D01*
X177135061Y-81375548D01*
X177143405Y-81370816D01*
X177163877Y-81357638D01*
X177179619Y-81345704D01*
X177194797Y-81332534D01*
X177209409Y-81318128D01*
X177223457Y-81302485D01*
X177236940Y-81285605D01*
X177249858Y-81267489D01*
X177259176Y-81253091D01*
X177271052Y-81232658D01*
X177282257Y-81210928D01*
X177292790Y-81187901D01*
X177300249Y-81169779D01*
X177307330Y-81150927D01*
X177314033Y-81131345D01*
X177320359Y-81111033D01*
X177326307Y-81089992D01*
X177331876Y-81068220D01*
X177335380Y-81053300D01*
X177340268Y-81030304D01*
X177344676Y-81006560D01*
X177348603Y-80982070D01*
X177352049Y-80956832D01*
X177355015Y-80930847D01*
X177357499Y-80904116D01*
X177359503Y-80876637D01*
X177361025Y-80848411D01*
X177362067Y-80819438D01*
X177362495Y-80799708D01*
X177362708Y-80779646D01*
X177362735Y-80769490D01*
X177362369Y-80749829D01*
X177361270Y-80729923D01*
X177360170Y-80709895D01*
X177359804Y-80690844D01*
X176691067Y-81159790D01*
X176341315Y-81159790D01*
X176338197Y-81147616D01*
X176332839Y-81124613D01*
X176327878Y-81101080D01*
X176323314Y-81077017D01*
X176319146Y-81052423D01*
X176315376Y-81027298D01*
X176312002Y-81001643D01*
X176309026Y-80975457D01*
X176306446Y-80948741D01*
X176304263Y-80921495D01*
X176302477Y-80893718D01*
X176301088Y-80865411D01*
X176300095Y-80836573D01*
X176299815Y-80822735D01*
X176637334Y-80822735D01*
X176637746Y-80843389D01*
X176638982Y-80864317D01*
X176640265Y-80878422D01*
X177313398Y-80378213D01*
X177304147Y-80354892D01*
X177294347Y-80332738D01*
X177283997Y-80311752D01*
X177273098Y-80291934D01*
X177261649Y-80273284D01*
X177249651Y-80255802D01*
X177237103Y-80239487D01*
X177224005Y-80224340D01*
X177205687Y-80205961D01*
X177186392Y-80189658D01*
X177166173Y-80175232D01*
X177145084Y-80162730D01*
X177123125Y-80152151D01*
X177100296Y-80143496D01*
X177076597Y-80136764D01*
X177052028Y-80131955D01*
X177026588Y-80129070D01*
X177006938Y-80128168D01*
X177000279Y-80128108D01*
X176976434Y-80129039D01*
X176953138Y-80131829D01*
X176930390Y-80136480D01*
X176908191Y-80142992D01*
X176886541Y-80151364D01*
X176865439Y-80161596D01*
X176857152Y-80166210D01*
X176836962Y-80179119D01*
X176817606Y-80194031D01*
X176802722Y-80207403D01*
X176788373Y-80222058D01*
X176774558Y-80237995D01*
X176761277Y-80255214D01*
X176748531Y-80273715D01*
X176742358Y-80283447D01*
X176730467Y-80303856D01*
X176719216Y-80325518D01*
X176708607Y-80348431D01*
X176698639Y-80372595D01*
X176691583Y-80391540D01*
X176684889Y-80411190D01*
X176678555Y-80431543D01*
X176672581Y-80452600D01*
X176666968Y-80474362D01*
X176665177Y-80481772D01*
X176660201Y-80504507D01*
X176655715Y-80528014D01*
X176651718Y-80552294D01*
X176648210Y-80577347D01*
X176645192Y-80603173D01*
X176642663Y-80629772D01*
X176640624Y-80657143D01*
X176639074Y-80685287D01*
X176638014Y-80714204D01*
X176637578Y-80733912D01*
X176637361Y-80753963D01*
X176637334Y-80764117D01*
X176637334Y-80785148D01*
X176637334Y-80805256D01*
X176637334Y-80822735D01*
X176299815Y-80822735D01*
X176299500Y-80807205D01*
X176299302Y-80777306D01*
X176299492Y-80750012D01*
X176300065Y-80723084D01*
X176301019Y-80696523D01*
X176302355Y-80670327D01*
X176304072Y-80644499D01*
X176306171Y-80619036D01*
X176308652Y-80593941D01*
X176311514Y-80569211D01*
X176314758Y-80544848D01*
X176318383Y-80520851D01*
X176322390Y-80497220D01*
X176326779Y-80473956D01*
X176331549Y-80451058D01*
X176336701Y-80428527D01*
X176342235Y-80406362D01*
X176348150Y-80384563D01*
X176354424Y-80363099D01*
X176361034Y-80342057D01*
X176367980Y-80321440D01*
X176375261Y-80301246D01*
X176382879Y-80281476D01*
X176390832Y-80262129D01*
X176399121Y-80243206D01*
X176407745Y-80224706D01*
X176416706Y-80206631D01*
X176426003Y-80188978D01*
X176435635Y-80171750D01*
X176450713Y-80146701D01*
X176466547Y-80122605D01*
X176483136Y-80099463D01*
X176488834Y-80091960D01*
X176506514Y-80070023D01*
X176524932Y-80049090D01*
X176544089Y-80029162D01*
X176563985Y-80010238D01*
X176584618Y-79992319D01*
X176605991Y-79975405D01*
X176628101Y-79959495D01*
X176650950Y-79944590D01*
X176674538Y-79930690D01*
X176698864Y-79917794D01*
X176715491Y-79909755D01*
X176741084Y-79898494D01*
X176767303Y-79888340D01*
X176794150Y-79879294D01*
X176821623Y-79871356D01*
X176849722Y-79864525D01*
X176878449Y-79858802D01*
X176897949Y-79855602D01*
X176917726Y-79852894D01*
X176937783Y-79850679D01*
X176958118Y-79848956D01*
X176978732Y-79847725D01*
X176999624Y-79846987D01*
X177020795Y-79846741D01*
X177048345Y-79847196D01*
G37*
G36*
X177941591Y-81660000D02*
G01*
X177941591Y-81409406D01*
X178366085Y-80992728D01*
X178380858Y-80978018D01*
X178395256Y-80963564D01*
X178409281Y-80949365D01*
X178429617Y-80928547D01*
X178449112Y-80908304D01*
X178467765Y-80888636D01*
X178485577Y-80869544D01*
X178502547Y-80851027D01*
X178518675Y-80833085D01*
X178533962Y-80815718D01*
X178548408Y-80798927D01*
X178557571Y-80788053D01*
X178570835Y-80772096D01*
X178583514Y-80756465D01*
X178599512Y-80736132D01*
X178614472Y-80716379D01*
X178628394Y-80697206D01*
X178641278Y-80678613D01*
X178653123Y-80660600D01*
X178663931Y-80643167D01*
X178668946Y-80634668D01*
X178680502Y-80613712D01*
X178690746Y-80593280D01*
X178699679Y-80573374D01*
X178707300Y-80553992D01*
X178713608Y-80535134D01*
X178719447Y-80513198D01*
X178720237Y-80509616D01*
X178724553Y-80488029D01*
X178727976Y-80466133D01*
X178730506Y-80443928D01*
X178732144Y-80421413D01*
X178732888Y-80398590D01*
X178732937Y-80390914D01*
X178732143Y-80370608D01*
X178729758Y-80350722D01*
X178725785Y-80331258D01*
X178720221Y-80312214D01*
X178716329Y-80301521D01*
X178708338Y-80283298D01*
X178697431Y-80263904D01*
X178684631Y-80246036D01*
X178669938Y-80229695D01*
X178667969Y-80227759D01*
X178651269Y-80212922D01*
X178634903Y-80201241D01*
X178616901Y-80190776D01*
X178597263Y-80181526D01*
X178588346Y-80177934D01*
X178566747Y-80170701D01*
X178547193Y-80165915D01*
X178526676Y-80162435D01*
X178505198Y-80160260D01*
X178482758Y-80159390D01*
X178478925Y-80159371D01*
X178459183Y-80159745D01*
X178433274Y-80161405D01*
X178407838Y-80164393D01*
X178382876Y-80168709D01*
X178358387Y-80174354D01*
X178334371Y-80181326D01*
X178310828Y-80189627D01*
X178287759Y-80199255D01*
X178282065Y-80201870D01*
X178259618Y-80212945D01*
X178237460Y-80224920D01*
X178215593Y-80237796D01*
X178194016Y-80251573D01*
X178172728Y-80266251D01*
X178156953Y-80277850D01*
X178141341Y-80289956D01*
X178125892Y-80302568D01*
X178110607Y-80315687D01*
X177933286Y-80086587D01*
X177947994Y-80073140D01*
X177962931Y-80060033D01*
X177978097Y-80047266D01*
X177993492Y-80034838D01*
X178009116Y-80022750D01*
X178024969Y-80011002D01*
X178041051Y-79999593D01*
X178057362Y-79988524D01*
X178073901Y-79977794D01*
X178090670Y-79967404D01*
X178107668Y-79957354D01*
X178124895Y-79947643D01*
X178142351Y-79938273D01*
X178160035Y-79929241D01*
X178177949Y-79920550D01*
X178196092Y-79912198D01*
X178214503Y-79904271D01*
X178233102Y-79896856D01*
X178251888Y-79889953D01*
X178270860Y-79883560D01*
X178290020Y-79877679D01*
X178309367Y-79872310D01*
X178328901Y-79867452D01*
X178348621Y-79863105D01*
X178368529Y-79859269D01*
X178388624Y-79855946D01*
X178408905Y-79853133D01*
X178429374Y-79850832D01*
X178450030Y-79849042D01*
X178470872Y-79847763D01*
X178491902Y-79846996D01*
X178513119Y-79846741D01*
X178537629Y-79847037D01*
X178561702Y-79847926D01*
X178585337Y-79849407D01*
X178608534Y-79851480D01*
X178631293Y-79854147D01*
X178653614Y-79857405D01*
X178675497Y-79861256D01*
X178696942Y-79865700D01*
X178717949Y-79870736D01*
X178738519Y-79876365D01*
X178751988Y-79880446D01*
X178771776Y-79886958D01*
X178791023Y-79894036D01*
X178809729Y-79901681D01*
X178827894Y-79909893D01*
X178845519Y-79918671D01*
X178868176Y-79931257D01*
X178889872Y-79944851D01*
X178910605Y-79959452D01*
X178930378Y-79975061D01*
X178935170Y-79979120D01*
X178953687Y-79995996D01*
X178971135Y-80013894D01*
X178987515Y-80032815D01*
X179002826Y-80052759D01*
X179017068Y-80073726D01*
X179030242Y-80095716D01*
X179042347Y-80118728D01*
X179050725Y-80136658D01*
X179053384Y-80142763D01*
X179060892Y-80161439D01*
X179067661Y-80180647D01*
X179073691Y-80200388D01*
X179078984Y-80220661D01*
X179083538Y-80241467D01*
X179087353Y-80262804D01*
X179090430Y-80284675D01*
X179092768Y-80307077D01*
X179094368Y-80330012D01*
X179095230Y-80353480D01*
X179095394Y-80369420D01*
X179095140Y-80389263D01*
X179094381Y-80408856D01*
X179092579Y-80434593D01*
X179089877Y-80459887D01*
X179086275Y-80484739D01*
X179081772Y-80509148D01*
X179076368Y-80533115D01*
X179070063Y-80556638D01*
X179066573Y-80568234D01*
X179058956Y-80591124D01*
X179050514Y-80613877D01*
X179041248Y-80636492D01*
X179031158Y-80658970D01*
X179020243Y-80681311D01*
X179008504Y-80703514D01*
X178995941Y-80725580D01*
X178982554Y-80747508D01*
X178968471Y-80769253D01*
X178957379Y-80785572D01*
X178945831Y-80801900D01*
X178933829Y-80818236D01*
X178921371Y-80834581D01*
X178908458Y-80850934D01*
X178895090Y-80867296D01*
X178881267Y-80883666D01*
X178866989Y-80900046D01*
X178852255Y-80916433D01*
X178847243Y-80921898D01*
X178832020Y-80938374D01*
X178816394Y-80955014D01*
X178800364Y-80971816D01*
X178783931Y-80988782D01*
X178767094Y-81005911D01*
X178749853Y-81023203D01*
X178732209Y-81040658D01*
X178714161Y-81058277D01*
X178695710Y-81076058D01*
X178676855Y-81094003D01*
X178664061Y-81106057D01*
X178403210Y-81347369D01*
X179160362Y-81347369D01*
X179160362Y-81660000D01*
X177941591Y-81660000D01*
G37*
G36*
X180703489Y-81125596D02*
G01*
X180703051Y-81149915D01*
X180701737Y-81173779D01*
X180699547Y-81197187D01*
X180696482Y-81220141D01*
X180692541Y-81242640D01*
X180687724Y-81264683D01*
X180682031Y-81286271D01*
X180675462Y-81307404D01*
X180668017Y-81328083D01*
X180659697Y-81348306D01*
X180653663Y-81361535D01*
X180643944Y-81380865D01*
X180633290Y-81399654D01*
X180621699Y-81417902D01*
X180609173Y-81435609D01*
X180595710Y-81452775D01*
X180581312Y-81469400D01*
X180565978Y-81485485D01*
X180549707Y-81501028D01*
X180532501Y-81516030D01*
X180514359Y-81530492D01*
X180501744Y-81539832D01*
X180482134Y-81553270D01*
X180461587Y-81566107D01*
X180440105Y-81578343D01*
X180417686Y-81589978D01*
X180394332Y-81601012D01*
X180370042Y-81611445D01*
X180344816Y-81621277D01*
X180318654Y-81630507D01*
X180291555Y-81639137D01*
X180263521Y-81647165D01*
X180244312Y-81652184D01*
X180224738Y-81656916D01*
X180204730Y-81661343D01*
X180184286Y-81665464D01*
X180163407Y-81669281D01*
X180142093Y-81672792D01*
X180120344Y-81675997D01*
X180098160Y-81678898D01*
X180075540Y-81681493D01*
X180052486Y-81683783D01*
X180028997Y-81685767D01*
X180005072Y-81687446D01*
X179980713Y-81688820D01*
X179955919Y-81689889D01*
X179930689Y-81690652D01*
X179905024Y-81691110D01*
X179878925Y-81691263D01*
X179858365Y-81691146D01*
X179837291Y-81690795D01*
X179815703Y-81690211D01*
X179793600Y-81689393D01*
X179780739Y-81688820D01*
X179758323Y-81687681D01*
X179735953Y-81686403D01*
X179713630Y-81684983D01*
X179691354Y-81683424D01*
X179678646Y-81682470D01*
X179656536Y-81680690D01*
X179634661Y-81678770D01*
X179613019Y-81676710D01*
X179591611Y-81674509D01*
X179579483Y-81673189D01*
X179558983Y-81670721D01*
X179539372Y-81668019D01*
X179518046Y-81664646D01*
X179497881Y-81660967D01*
X179493021Y-81660000D01*
X179493021Y-81378632D01*
X179514972Y-81381975D01*
X179537595Y-81385165D01*
X179560890Y-81388203D01*
X179584856Y-81391088D01*
X179609494Y-81393821D01*
X179634804Y-81396400D01*
X179660785Y-81398828D01*
X179680712Y-81400548D01*
X179687438Y-81401102D01*
X179707757Y-81402673D01*
X179728231Y-81404090D01*
X179748859Y-81405352D01*
X179769641Y-81406460D01*
X179790579Y-81407413D01*
X179811670Y-81408212D01*
X179832917Y-81408856D01*
X179854317Y-81409345D01*
X179875873Y-81409680D01*
X179897583Y-81409860D01*
X179912142Y-81409895D01*
X179933208Y-81409732D01*
X179953724Y-81409242D01*
X179973691Y-81408427D01*
X179999459Y-81406831D01*
X180024249Y-81404656D01*
X180048063Y-81401901D01*
X180070900Y-81398565D01*
X180092759Y-81394650D01*
X180108513Y-81391332D01*
X180128694Y-81386432D01*
X180147958Y-81381013D01*
X180170751Y-81373509D01*
X180192113Y-81365195D01*
X180212043Y-81356069D01*
X180230543Y-81346132D01*
X180244312Y-81337599D01*
X180260412Y-81326203D01*
X180277906Y-81311456D01*
X180293408Y-81295542D01*
X180306917Y-81278461D01*
X180318435Y-81260211D01*
X180323447Y-81250648D01*
X180332079Y-81230601D01*
X180338926Y-81209661D01*
X180343986Y-81187828D01*
X180347260Y-81165102D01*
X180348625Y-81145482D01*
X180348848Y-81133412D01*
X180347921Y-81112008D01*
X180345139Y-81091395D01*
X180340502Y-81071571D01*
X180334010Y-81052537D01*
X180325664Y-81034293D01*
X180322470Y-81028387D01*
X180311782Y-81011134D01*
X180299137Y-80994911D01*
X180284534Y-80979718D01*
X180267973Y-80965556D01*
X180249455Y-80952424D01*
X180242847Y-80948276D01*
X180225468Y-80938265D01*
X180206611Y-80928994D01*
X180186275Y-80920462D01*
X180164460Y-80912670D01*
X180141166Y-80905617D01*
X180121467Y-80900507D01*
X180106071Y-80896985D01*
X180084829Y-80892634D01*
X180062626Y-80888864D01*
X180039461Y-80885673D01*
X180015334Y-80883063D01*
X179990246Y-80881033D01*
X179964196Y-80879583D01*
X179944027Y-80878876D01*
X179923318Y-80878495D01*
X179909211Y-80878422D01*
X179709909Y-80878422D01*
X179709909Y-80628318D01*
X179892602Y-80628318D01*
X179912426Y-80628129D01*
X179937843Y-80627289D01*
X179962099Y-80625778D01*
X179985195Y-80623595D01*
X180007131Y-80620740D01*
X180027907Y-80617214D01*
X180047523Y-80613016D01*
X180070411Y-80606824D01*
X180091842Y-80599597D01*
X180111866Y-80591655D01*
X180130482Y-80582996D01*
X180147691Y-80573623D01*
X180166485Y-80561430D01*
X180183251Y-80548206D01*
X180198146Y-80534004D01*
X180211324Y-80518874D01*
X180222784Y-80502817D01*
X180232527Y-80485833D01*
X180240553Y-80467921D01*
X180242847Y-80461744D01*
X180248989Y-80442888D01*
X180253860Y-80423688D01*
X180257461Y-80404145D01*
X180259791Y-80384258D01*
X180260850Y-80364028D01*
X180260921Y-80357208D01*
X180260290Y-80336619D01*
X180258396Y-80316983D01*
X180253908Y-80292283D01*
X180247176Y-80269279D01*
X180238200Y-80247969D01*
X180226980Y-80228353D01*
X180213517Y-80210432D01*
X180197809Y-80194205D01*
X180189113Y-80186727D01*
X180170062Y-80172988D01*
X180148569Y-80161081D01*
X180124633Y-80151006D01*
X180105078Y-80144652D01*
X180084150Y-80139328D01*
X180061847Y-80135035D01*
X180038171Y-80131772D01*
X180013121Y-80129539D01*
X179986697Y-80128337D01*
X179968318Y-80128108D01*
X179948193Y-80128259D01*
X179928121Y-80128709D01*
X179908099Y-80129461D01*
X179888130Y-80130513D01*
X179868212Y-80131865D01*
X179848345Y-80133518D01*
X179828530Y-80135471D01*
X179808766Y-80137725D01*
X179789054Y-80140280D01*
X179769393Y-80143135D01*
X179756315Y-80145205D01*
X179736742Y-80148510D01*
X179717040Y-80152012D01*
X179697209Y-80155711D01*
X179677249Y-80159608D01*
X179657160Y-80163702D01*
X179636943Y-80167994D01*
X179616597Y-80172484D01*
X179596122Y-80177171D01*
X179575518Y-80182055D01*
X179554786Y-80187137D01*
X179540893Y-80190635D01*
X179540893Y-79909267D01*
X179560136Y-79904067D01*
X179579094Y-79899154D01*
X179601465Y-79893635D01*
X179623424Y-79888529D01*
X179644971Y-79883835D01*
X179659106Y-79880935D01*
X179680172Y-79876842D01*
X179701238Y-79872989D01*
X179722304Y-79869377D01*
X179743370Y-79866005D01*
X179764436Y-79862874D01*
X179771458Y-79861884D01*
X179792741Y-79858941D01*
X179814094Y-79856342D01*
X179835514Y-79854087D01*
X179857004Y-79852175D01*
X179878562Y-79850607D01*
X179885764Y-79850160D01*
X179907534Y-79848998D01*
X179929613Y-79848076D01*
X179952001Y-79847395D01*
X179974699Y-79846954D01*
X179997705Y-79846754D01*
X180005443Y-79846741D01*
X180032964Y-79847024D01*
X180059842Y-79847874D01*
X180086076Y-79849291D01*
X180111665Y-79851274D01*
X180136611Y-79853825D01*
X180160913Y-79856942D01*
X180184570Y-79860625D01*
X180207584Y-79864876D01*
X180229954Y-79869693D01*
X180251679Y-79875077D01*
X180265806Y-79878981D01*
X180286466Y-79885175D01*
X180306501Y-79891849D01*
X180325908Y-79899005D01*
X180344688Y-79906641D01*
X180362842Y-79914758D01*
X180386072Y-79926329D01*
X180408187Y-79938755D01*
X180429188Y-79952036D01*
X180449075Y-79966172D01*
X180453872Y-79969839D01*
X180472336Y-79984906D01*
X180489624Y-80000797D01*
X180505736Y-80017512D01*
X180520673Y-80035052D01*
X180534434Y-80053416D01*
X180547021Y-80072604D01*
X180558431Y-80092617D01*
X180568667Y-80113454D01*
X180577711Y-80134886D01*
X180585550Y-80156929D01*
X180592183Y-80179583D01*
X180597609Y-80202847D01*
X180601830Y-80226721D01*
X180604845Y-80251207D01*
X180606654Y-80276303D01*
X180607257Y-80302009D01*
X180606965Y-80322402D01*
X180606089Y-80342302D01*
X180603681Y-80371229D01*
X180599958Y-80399048D01*
X180594922Y-80425760D01*
X180588572Y-80451364D01*
X180580909Y-80475860D01*
X180571931Y-80499249D01*
X180561640Y-80521530D01*
X180550035Y-80542703D01*
X180537117Y-80562769D01*
X180532519Y-80569211D01*
X180517977Y-80587845D01*
X180502380Y-80605647D01*
X180485726Y-80622616D01*
X180468016Y-80638751D01*
X180449250Y-80654054D01*
X180429427Y-80668524D01*
X180408549Y-80682161D01*
X180386614Y-80694965D01*
X180363623Y-80706937D01*
X180339576Y-80718075D01*
X180322958Y-80725038D01*
X180344314Y-80728763D01*
X180365151Y-80733098D01*
X180385469Y-80738044D01*
X180405268Y-80743600D01*
X180424548Y-80749767D01*
X180443309Y-80756545D01*
X180461551Y-80763934D01*
X180479274Y-80771933D01*
X180500755Y-80782637D01*
X180521234Y-80794296D01*
X180540711Y-80806909D01*
X180559187Y-80820476D01*
X180576661Y-80834997D01*
X180593133Y-80850472D01*
X180599441Y-80856929D01*
X180614592Y-80873492D01*
X180628598Y-80890818D01*
X180641459Y-80908907D01*
X180653175Y-80927759D01*
X180663746Y-80947375D01*
X180673172Y-80967754D01*
X180676622Y-80976120D01*
X180684362Y-80997543D01*
X180690790Y-81019683D01*
X180695906Y-81042537D01*
X180699711Y-81066108D01*
X180702203Y-81090394D01*
X180703253Y-81110338D01*
X180703489Y-81125596D01*
G37*
D11*
X248447932Y-53197539D02*
X248447932Y-52197539D01*
X248447932Y-52673729D02*
X249019360Y-52673729D01*
X249019360Y-53197539D02*
X249019360Y-52197539D01*
X249400313Y-52197539D02*
X250019360Y-52197539D01*
X250019360Y-52197539D02*
X249686027Y-52578491D01*
X249686027Y-52578491D02*
X249828884Y-52578491D01*
X249828884Y-52578491D02*
X249924122Y-52626110D01*
X249924122Y-52626110D02*
X249971741Y-52673729D01*
X249971741Y-52673729D02*
X250019360Y-52768967D01*
X250019360Y-52768967D02*
X250019360Y-53007062D01*
X250019360Y-53007062D02*
X249971741Y-53102300D01*
X249971741Y-53102300D02*
X249924122Y-53149920D01*
X249924122Y-53149920D02*
X249828884Y-53197539D01*
X249828884Y-53197539D02*
X249543170Y-53197539D01*
X249543170Y-53197539D02*
X249447932Y-53149920D01*
X249447932Y-53149920D02*
X249400313Y-53102300D01*
X77176736Y-72282401D02*
X77176736Y-71282401D01*
X77176736Y-71758591D02*
X77748164Y-71758591D01*
X77748164Y-72282401D02*
X77748164Y-71282401D01*
X78748164Y-72282401D02*
X78176736Y-72282401D01*
X78462450Y-72282401D02*
X78462450Y-71282401D01*
X78462450Y-71282401D02*
X78367212Y-71425258D01*
X78367212Y-71425258D02*
X78271974Y-71520496D01*
X78271974Y-71520496D02*
X78176736Y-71568115D01*
X153652619Y-32736189D02*
X152652619Y-32736189D01*
X152652619Y-32069523D02*
X152652619Y-31879047D01*
X152652619Y-31879047D02*
X152700238Y-31783809D01*
X152700238Y-31783809D02*
X152795476Y-31688571D01*
X152795476Y-31688571D02*
X152985952Y-31640952D01*
X152985952Y-31640952D02*
X153319285Y-31640952D01*
X153319285Y-31640952D02*
X153509761Y-31688571D01*
X153509761Y-31688571D02*
X153605000Y-31783809D01*
X153605000Y-31783809D02*
X153652619Y-31879047D01*
X153652619Y-31879047D02*
X153652619Y-32069523D01*
X153652619Y-32069523D02*
X153605000Y-32164761D01*
X153605000Y-32164761D02*
X153509761Y-32259999D01*
X153509761Y-32259999D02*
X153319285Y-32307618D01*
X153319285Y-32307618D02*
X152985952Y-32307618D01*
X152985952Y-32307618D02*
X152795476Y-32259999D01*
X152795476Y-32259999D02*
X152700238Y-32164761D01*
X152700238Y-32164761D02*
X152652619Y-32069523D01*
X152652619Y-31307618D02*
X153652619Y-30640952D01*
X152652619Y-30640952D02*
X153652619Y-31307618D01*
X152747857Y-30307618D02*
X152700238Y-30259999D01*
X152700238Y-30259999D02*
X152652619Y-30164761D01*
X152652619Y-30164761D02*
X152652619Y-29926666D01*
X152652619Y-29926666D02*
X152700238Y-29831428D01*
X152700238Y-29831428D02*
X152747857Y-29783809D01*
X152747857Y-29783809D02*
X152843095Y-29736190D01*
X152843095Y-29736190D02*
X152938333Y-29736190D01*
X152938333Y-29736190D02*
X153081190Y-29783809D01*
X153081190Y-29783809D02*
X153652619Y-30355237D01*
X153652619Y-30355237D02*
X153652619Y-29736190D01*
D12*
X160988095Y-36310129D02*
X160988095Y-35310129D01*
X160988095Y-35310129D02*
X161369047Y-35310129D01*
X161369047Y-35310129D02*
X161464285Y-35357748D01*
X161464285Y-35357748D02*
X161511904Y-35405367D01*
X161511904Y-35405367D02*
X161559523Y-35500605D01*
X161559523Y-35500605D02*
X161559523Y-35643462D01*
X161559523Y-35643462D02*
X161511904Y-35738700D01*
X161511904Y-35738700D02*
X161464285Y-35786319D01*
X161464285Y-35786319D02*
X161369047Y-35833938D01*
X161369047Y-35833938D02*
X160988095Y-35833938D01*
X162416666Y-35310129D02*
X162226190Y-35310129D01*
X162226190Y-35310129D02*
X162130952Y-35357748D01*
X162130952Y-35357748D02*
X162083333Y-35405367D01*
X162083333Y-35405367D02*
X161988095Y-35548224D01*
X161988095Y-35548224D02*
X161940476Y-35738700D01*
X161940476Y-35738700D02*
X161940476Y-36119652D01*
X161940476Y-36119652D02*
X161988095Y-36214890D01*
X161988095Y-36214890D02*
X162035714Y-36262510D01*
X162035714Y-36262510D02*
X162130952Y-36310129D01*
X162130952Y-36310129D02*
X162321428Y-36310129D01*
X162321428Y-36310129D02*
X162416666Y-36262510D01*
X162416666Y-36262510D02*
X162464285Y-36214890D01*
X162464285Y-36214890D02*
X162511904Y-36119652D01*
X162511904Y-36119652D02*
X162511904Y-35881557D01*
X162511904Y-35881557D02*
X162464285Y-35786319D01*
X162464285Y-35786319D02*
X162416666Y-35738700D01*
X162416666Y-35738700D02*
X162321428Y-35691081D01*
X162321428Y-35691081D02*
X162130952Y-35691081D01*
X162130952Y-35691081D02*
X162035714Y-35738700D01*
X162035714Y-35738700D02*
X161988095Y-35786319D01*
X161988095Y-35786319D02*
X161940476Y-35881557D01*
X159988095Y-33810129D02*
X159988095Y-32810129D01*
X159988095Y-32810129D02*
X160369047Y-32810129D01*
X160369047Y-32810129D02*
X160464285Y-32857748D01*
X160464285Y-32857748D02*
X160511904Y-32905367D01*
X160511904Y-32905367D02*
X160559523Y-33000605D01*
X160559523Y-33000605D02*
X160559523Y-33143462D01*
X160559523Y-33143462D02*
X160511904Y-33238700D01*
X160511904Y-33238700D02*
X160464285Y-33286319D01*
X160464285Y-33286319D02*
X160369047Y-33333938D01*
X160369047Y-33333938D02*
X159988095Y-33333938D01*
X160940476Y-32905367D02*
X160988095Y-32857748D01*
X160988095Y-32857748D02*
X161083333Y-32810129D01*
X161083333Y-32810129D02*
X161321428Y-32810129D01*
X161321428Y-32810129D02*
X161416666Y-32857748D01*
X161416666Y-32857748D02*
X161464285Y-32905367D01*
X161464285Y-32905367D02*
X161511904Y-33000605D01*
X161511904Y-33000605D02*
X161511904Y-33095843D01*
X161511904Y-33095843D02*
X161464285Y-33238700D01*
X161464285Y-33238700D02*
X160892857Y-33810129D01*
X160892857Y-33810129D02*
X161511904Y-33810129D01*
X161988095Y-33810129D02*
X162178571Y-33810129D01*
X162178571Y-33810129D02*
X162273809Y-33762510D01*
X162273809Y-33762510D02*
X162321428Y-33714890D01*
X162321428Y-33714890D02*
X162416666Y-33572033D01*
X162416666Y-33572033D02*
X162464285Y-33381557D01*
X162464285Y-33381557D02*
X162464285Y-33000605D01*
X162464285Y-33000605D02*
X162416666Y-32905367D01*
X162416666Y-32905367D02*
X162369047Y-32857748D01*
X162369047Y-32857748D02*
X162273809Y-32810129D01*
X162273809Y-32810129D02*
X162083333Y-32810129D01*
X162083333Y-32810129D02*
X161988095Y-32857748D01*
X161988095Y-32857748D02*
X161940476Y-32905367D01*
X161940476Y-32905367D02*
X161892857Y-33000605D01*
X161892857Y-33000605D02*
X161892857Y-33238700D01*
X161892857Y-33238700D02*
X161940476Y-33333938D01*
X161940476Y-33333938D02*
X161988095Y-33381557D01*
X161988095Y-33381557D02*
X162083333Y-33429176D01*
X162083333Y-33429176D02*
X162273809Y-33429176D01*
X162273809Y-33429176D02*
X162369047Y-33381557D01*
X162369047Y-33381557D02*
X162416666Y-33333938D01*
X162416666Y-33333938D02*
X162464285Y-33238700D01*
X184488095Y-38810129D02*
X184488095Y-37810129D01*
X184488095Y-37810129D02*
X184869047Y-37810129D01*
X184869047Y-37810129D02*
X184964285Y-37857748D01*
X184964285Y-37857748D02*
X185011904Y-37905367D01*
X185011904Y-37905367D02*
X185059523Y-38000605D01*
X185059523Y-38000605D02*
X185059523Y-38143462D01*
X185059523Y-38143462D02*
X185011904Y-38238700D01*
X185011904Y-38238700D02*
X184964285Y-38286319D01*
X184964285Y-38286319D02*
X184869047Y-38333938D01*
X184869047Y-38333938D02*
X184488095Y-38333938D01*
X185440476Y-37905367D02*
X185488095Y-37857748D01*
X185488095Y-37857748D02*
X185583333Y-37810129D01*
X185583333Y-37810129D02*
X185821428Y-37810129D01*
X185821428Y-37810129D02*
X185916666Y-37857748D01*
X185916666Y-37857748D02*
X185964285Y-37905367D01*
X185964285Y-37905367D02*
X186011904Y-38000605D01*
X186011904Y-38000605D02*
X186011904Y-38095843D01*
X186011904Y-38095843D02*
X185964285Y-38238700D01*
X185964285Y-38238700D02*
X185392857Y-38810129D01*
X185392857Y-38810129D02*
X186011904Y-38810129D01*
X159988095Y-26310129D02*
X159988095Y-25310129D01*
X159988095Y-25310129D02*
X160369047Y-25310129D01*
X160369047Y-25310129D02*
X160464285Y-25357748D01*
X160464285Y-25357748D02*
X160511904Y-25405367D01*
X160511904Y-25405367D02*
X160559523Y-25500605D01*
X160559523Y-25500605D02*
X160559523Y-25643462D01*
X160559523Y-25643462D02*
X160511904Y-25738700D01*
X160511904Y-25738700D02*
X160464285Y-25786319D01*
X160464285Y-25786319D02*
X160369047Y-25833938D01*
X160369047Y-25833938D02*
X159988095Y-25833938D01*
X160940476Y-25405367D02*
X160988095Y-25357748D01*
X160988095Y-25357748D02*
X161083333Y-25310129D01*
X161083333Y-25310129D02*
X161321428Y-25310129D01*
X161321428Y-25310129D02*
X161416666Y-25357748D01*
X161416666Y-25357748D02*
X161464285Y-25405367D01*
X161464285Y-25405367D02*
X161511904Y-25500605D01*
X161511904Y-25500605D02*
X161511904Y-25595843D01*
X161511904Y-25595843D02*
X161464285Y-25738700D01*
X161464285Y-25738700D02*
X160892857Y-26310129D01*
X160892857Y-26310129D02*
X161511904Y-26310129D01*
X162369047Y-25310129D02*
X162178571Y-25310129D01*
X162178571Y-25310129D02*
X162083333Y-25357748D01*
X162083333Y-25357748D02*
X162035714Y-25405367D01*
X162035714Y-25405367D02*
X161940476Y-25548224D01*
X161940476Y-25548224D02*
X161892857Y-25738700D01*
X161892857Y-25738700D02*
X161892857Y-26119652D01*
X161892857Y-26119652D02*
X161940476Y-26214890D01*
X161940476Y-26214890D02*
X161988095Y-26262510D01*
X161988095Y-26262510D02*
X162083333Y-26310129D01*
X162083333Y-26310129D02*
X162273809Y-26310129D01*
X162273809Y-26310129D02*
X162369047Y-26262510D01*
X162369047Y-26262510D02*
X162416666Y-26214890D01*
X162416666Y-26214890D02*
X162464285Y-26119652D01*
X162464285Y-26119652D02*
X162464285Y-25881557D01*
X162464285Y-25881557D02*
X162416666Y-25786319D01*
X162416666Y-25786319D02*
X162369047Y-25738700D01*
X162369047Y-25738700D02*
X162273809Y-25691081D01*
X162273809Y-25691081D02*
X162083333Y-25691081D01*
X162083333Y-25691081D02*
X161988095Y-25738700D01*
X161988095Y-25738700D02*
X161940476Y-25786319D01*
X161940476Y-25786319D02*
X161892857Y-25881557D01*
X184488095Y-41310129D02*
X184488095Y-40310129D01*
X184488095Y-40310129D02*
X184869047Y-40310129D01*
X184869047Y-40310129D02*
X184964285Y-40357748D01*
X184964285Y-40357748D02*
X185011904Y-40405367D01*
X185011904Y-40405367D02*
X185059523Y-40500605D01*
X185059523Y-40500605D02*
X185059523Y-40643462D01*
X185059523Y-40643462D02*
X185011904Y-40738700D01*
X185011904Y-40738700D02*
X184964285Y-40786319D01*
X184964285Y-40786319D02*
X184869047Y-40833938D01*
X184869047Y-40833938D02*
X184488095Y-40833938D01*
X186011904Y-41310129D02*
X185440476Y-41310129D01*
X185726190Y-41310129D02*
X185726190Y-40310129D01*
X185726190Y-40310129D02*
X185630952Y-40452986D01*
X185630952Y-40452986D02*
X185535714Y-40548224D01*
X185535714Y-40548224D02*
X185440476Y-40595843D01*
X185011904Y-27857748D02*
X184916666Y-27810129D01*
X184916666Y-27810129D02*
X184773809Y-27810129D01*
X184773809Y-27810129D02*
X184630952Y-27857748D01*
X184630952Y-27857748D02*
X184535714Y-27952986D01*
X184535714Y-27952986D02*
X184488095Y-28048224D01*
X184488095Y-28048224D02*
X184440476Y-28238700D01*
X184440476Y-28238700D02*
X184440476Y-28381557D01*
X184440476Y-28381557D02*
X184488095Y-28572033D01*
X184488095Y-28572033D02*
X184535714Y-28667271D01*
X184535714Y-28667271D02*
X184630952Y-28762510D01*
X184630952Y-28762510D02*
X184773809Y-28810129D01*
X184773809Y-28810129D02*
X184869047Y-28810129D01*
X184869047Y-28810129D02*
X185011904Y-28762510D01*
X185011904Y-28762510D02*
X185059523Y-28714890D01*
X185059523Y-28714890D02*
X185059523Y-28381557D01*
X185059523Y-28381557D02*
X184869047Y-28381557D01*
X185488095Y-28810129D02*
X185488095Y-27810129D01*
X185488095Y-27810129D02*
X186059523Y-28810129D01*
X186059523Y-28810129D02*
X186059523Y-27810129D01*
X186535714Y-28810129D02*
X186535714Y-27810129D01*
X186535714Y-27810129D02*
X186773809Y-27810129D01*
X186773809Y-27810129D02*
X186916666Y-27857748D01*
X186916666Y-27857748D02*
X187011904Y-27952986D01*
X187011904Y-27952986D02*
X187059523Y-28048224D01*
X187059523Y-28048224D02*
X187107142Y-28238700D01*
X187107142Y-28238700D02*
X187107142Y-28381557D01*
X187107142Y-28381557D02*
X187059523Y-28572033D01*
X187059523Y-28572033D02*
X187011904Y-28667271D01*
X187011904Y-28667271D02*
X186916666Y-28762510D01*
X186916666Y-28762510D02*
X186773809Y-28810129D01*
X186773809Y-28810129D02*
X186535714Y-28810129D01*
X160988095Y-38810129D02*
X160988095Y-37810129D01*
X160988095Y-37810129D02*
X161369047Y-37810129D01*
X161369047Y-37810129D02*
X161464285Y-37857748D01*
X161464285Y-37857748D02*
X161511904Y-37905367D01*
X161511904Y-37905367D02*
X161559523Y-38000605D01*
X161559523Y-38000605D02*
X161559523Y-38143462D01*
X161559523Y-38143462D02*
X161511904Y-38238700D01*
X161511904Y-38238700D02*
X161464285Y-38286319D01*
X161464285Y-38286319D02*
X161369047Y-38333938D01*
X161369047Y-38333938D02*
X160988095Y-38333938D01*
X161892857Y-37810129D02*
X162559523Y-37810129D01*
X162559523Y-37810129D02*
X162130952Y-38810129D01*
X159988095Y-31310129D02*
X159988095Y-30310129D01*
X159988095Y-30310129D02*
X160369047Y-30310129D01*
X160369047Y-30310129D02*
X160464285Y-30357748D01*
X160464285Y-30357748D02*
X160511904Y-30405367D01*
X160511904Y-30405367D02*
X160559523Y-30500605D01*
X160559523Y-30500605D02*
X160559523Y-30643462D01*
X160559523Y-30643462D02*
X160511904Y-30738700D01*
X160511904Y-30738700D02*
X160464285Y-30786319D01*
X160464285Y-30786319D02*
X160369047Y-30833938D01*
X160369047Y-30833938D02*
X159988095Y-30833938D01*
X160940476Y-30405367D02*
X160988095Y-30357748D01*
X160988095Y-30357748D02*
X161083333Y-30310129D01*
X161083333Y-30310129D02*
X161321428Y-30310129D01*
X161321428Y-30310129D02*
X161416666Y-30357748D01*
X161416666Y-30357748D02*
X161464285Y-30405367D01*
X161464285Y-30405367D02*
X161511904Y-30500605D01*
X161511904Y-30500605D02*
X161511904Y-30595843D01*
X161511904Y-30595843D02*
X161464285Y-30738700D01*
X161464285Y-30738700D02*
X160892857Y-31310129D01*
X160892857Y-31310129D02*
X161511904Y-31310129D01*
X162083333Y-30738700D02*
X161988095Y-30691081D01*
X161988095Y-30691081D02*
X161940476Y-30643462D01*
X161940476Y-30643462D02*
X161892857Y-30548224D01*
X161892857Y-30548224D02*
X161892857Y-30500605D01*
X161892857Y-30500605D02*
X161940476Y-30405367D01*
X161940476Y-30405367D02*
X161988095Y-30357748D01*
X161988095Y-30357748D02*
X162083333Y-30310129D01*
X162083333Y-30310129D02*
X162273809Y-30310129D01*
X162273809Y-30310129D02*
X162369047Y-30357748D01*
X162369047Y-30357748D02*
X162416666Y-30405367D01*
X162416666Y-30405367D02*
X162464285Y-30500605D01*
X162464285Y-30500605D02*
X162464285Y-30548224D01*
X162464285Y-30548224D02*
X162416666Y-30643462D01*
X162416666Y-30643462D02*
X162369047Y-30691081D01*
X162369047Y-30691081D02*
X162273809Y-30738700D01*
X162273809Y-30738700D02*
X162083333Y-30738700D01*
X162083333Y-30738700D02*
X161988095Y-30786319D01*
X161988095Y-30786319D02*
X161940476Y-30833938D01*
X161940476Y-30833938D02*
X161892857Y-30929176D01*
X161892857Y-30929176D02*
X161892857Y-31119652D01*
X161892857Y-31119652D02*
X161940476Y-31214890D01*
X161940476Y-31214890D02*
X161988095Y-31262510D01*
X161988095Y-31262510D02*
X162083333Y-31310129D01*
X162083333Y-31310129D02*
X162273809Y-31310129D01*
X162273809Y-31310129D02*
X162369047Y-31262510D01*
X162369047Y-31262510D02*
X162416666Y-31214890D01*
X162416666Y-31214890D02*
X162464285Y-31119652D01*
X162464285Y-31119652D02*
X162464285Y-30929176D01*
X162464285Y-30929176D02*
X162416666Y-30833938D01*
X162416666Y-30833938D02*
X162369047Y-30786319D01*
X162369047Y-30786319D02*
X162273809Y-30738700D01*
X184392857Y-30310129D02*
X185011904Y-30310129D01*
X185011904Y-30310129D02*
X184678571Y-30691081D01*
X184678571Y-30691081D02*
X184821428Y-30691081D01*
X184821428Y-30691081D02*
X184916666Y-30738700D01*
X184916666Y-30738700D02*
X184964285Y-30786319D01*
X184964285Y-30786319D02*
X185011904Y-30881557D01*
X185011904Y-30881557D02*
X185011904Y-31119652D01*
X185011904Y-31119652D02*
X184964285Y-31214890D01*
X184964285Y-31214890D02*
X184916666Y-31262510D01*
X184916666Y-31262510D02*
X184821428Y-31310129D01*
X184821428Y-31310129D02*
X184535714Y-31310129D01*
X184535714Y-31310129D02*
X184440476Y-31262510D01*
X184440476Y-31262510D02*
X184392857Y-31214890D01*
X185297619Y-30310129D02*
X185630952Y-31310129D01*
X185630952Y-31310129D02*
X185964285Y-30310129D01*
X186202381Y-30310129D02*
X186821428Y-30310129D01*
X186821428Y-30310129D02*
X186488095Y-30691081D01*
X186488095Y-30691081D02*
X186630952Y-30691081D01*
X186630952Y-30691081D02*
X186726190Y-30738700D01*
X186726190Y-30738700D02*
X186773809Y-30786319D01*
X186773809Y-30786319D02*
X186821428Y-30881557D01*
X186821428Y-30881557D02*
X186821428Y-31119652D01*
X186821428Y-31119652D02*
X186773809Y-31214890D01*
X186773809Y-31214890D02*
X186726190Y-31262510D01*
X186726190Y-31262510D02*
X186630952Y-31310129D01*
X186630952Y-31310129D02*
X186345238Y-31310129D01*
X186345238Y-31310129D02*
X186250000Y-31262510D01*
X186250000Y-31262510D02*
X186202381Y-31214890D01*
X160988095Y-41310129D02*
X160988095Y-40310129D01*
X160988095Y-40310129D02*
X161369047Y-40310129D01*
X161369047Y-40310129D02*
X161464285Y-40357748D01*
X161464285Y-40357748D02*
X161511904Y-40405367D01*
X161511904Y-40405367D02*
X161559523Y-40500605D01*
X161559523Y-40500605D02*
X161559523Y-40643462D01*
X161559523Y-40643462D02*
X161511904Y-40738700D01*
X161511904Y-40738700D02*
X161464285Y-40786319D01*
X161464285Y-40786319D02*
X161369047Y-40833938D01*
X161369047Y-40833938D02*
X160988095Y-40833938D01*
X162178571Y-40310129D02*
X162273809Y-40310129D01*
X162273809Y-40310129D02*
X162369047Y-40357748D01*
X162369047Y-40357748D02*
X162416666Y-40405367D01*
X162416666Y-40405367D02*
X162464285Y-40500605D01*
X162464285Y-40500605D02*
X162511904Y-40691081D01*
X162511904Y-40691081D02*
X162511904Y-40929176D01*
X162511904Y-40929176D02*
X162464285Y-41119652D01*
X162464285Y-41119652D02*
X162416666Y-41214890D01*
X162416666Y-41214890D02*
X162369047Y-41262510D01*
X162369047Y-41262510D02*
X162273809Y-41310129D01*
X162273809Y-41310129D02*
X162178571Y-41310129D01*
X162178571Y-41310129D02*
X162083333Y-41262510D01*
X162083333Y-41262510D02*
X162035714Y-41214890D01*
X162035714Y-41214890D02*
X161988095Y-41119652D01*
X161988095Y-41119652D02*
X161940476Y-40929176D01*
X161940476Y-40929176D02*
X161940476Y-40691081D01*
X161940476Y-40691081D02*
X161988095Y-40500605D01*
X161988095Y-40500605D02*
X162035714Y-40405367D01*
X162035714Y-40405367D02*
X162083333Y-40357748D01*
X162083333Y-40357748D02*
X162178571Y-40310129D01*
X184964285Y-25310129D02*
X184488095Y-25310129D01*
X184488095Y-25310129D02*
X184440476Y-25786319D01*
X184440476Y-25786319D02*
X184488095Y-25738700D01*
X184488095Y-25738700D02*
X184583333Y-25691081D01*
X184583333Y-25691081D02*
X184821428Y-25691081D01*
X184821428Y-25691081D02*
X184916666Y-25738700D01*
X184916666Y-25738700D02*
X184964285Y-25786319D01*
X184964285Y-25786319D02*
X185011904Y-25881557D01*
X185011904Y-25881557D02*
X185011904Y-26119652D01*
X185011904Y-26119652D02*
X184964285Y-26214890D01*
X184964285Y-26214890D02*
X184916666Y-26262510D01*
X184916666Y-26262510D02*
X184821428Y-26310129D01*
X184821428Y-26310129D02*
X184583333Y-26310129D01*
X184583333Y-26310129D02*
X184488095Y-26262510D01*
X184488095Y-26262510D02*
X184440476Y-26214890D01*
X185297619Y-25310129D02*
X185630952Y-26310129D01*
X185630952Y-26310129D02*
X185964285Y-25310129D01*
X184488095Y-33810129D02*
X184488095Y-32810129D01*
X184488095Y-32810129D02*
X184869047Y-32810129D01*
X184869047Y-32810129D02*
X184964285Y-32857748D01*
X184964285Y-32857748D02*
X185011904Y-32905367D01*
X185011904Y-32905367D02*
X185059523Y-33000605D01*
X185059523Y-33000605D02*
X185059523Y-33143462D01*
X185059523Y-33143462D02*
X185011904Y-33238700D01*
X185011904Y-33238700D02*
X184964285Y-33286319D01*
X184964285Y-33286319D02*
X184869047Y-33333938D01*
X184869047Y-33333938D02*
X184488095Y-33333938D01*
X185392857Y-32810129D02*
X186011904Y-32810129D01*
X186011904Y-32810129D02*
X185678571Y-33191081D01*
X185678571Y-33191081D02*
X185821428Y-33191081D01*
X185821428Y-33191081D02*
X185916666Y-33238700D01*
X185916666Y-33238700D02*
X185964285Y-33286319D01*
X185964285Y-33286319D02*
X186011904Y-33381557D01*
X186011904Y-33381557D02*
X186011904Y-33619652D01*
X186011904Y-33619652D02*
X185964285Y-33714890D01*
X185964285Y-33714890D02*
X185916666Y-33762510D01*
X185916666Y-33762510D02*
X185821428Y-33810129D01*
X185821428Y-33810129D02*
X185535714Y-33810129D01*
X185535714Y-33810129D02*
X185440476Y-33762510D01*
X185440476Y-33762510D02*
X185392857Y-33714890D01*
X159988095Y-28810129D02*
X159988095Y-27810129D01*
X159988095Y-27810129D02*
X160369047Y-27810129D01*
X160369047Y-27810129D02*
X160464285Y-27857748D01*
X160464285Y-27857748D02*
X160511904Y-27905367D01*
X160511904Y-27905367D02*
X160559523Y-28000605D01*
X160559523Y-28000605D02*
X160559523Y-28143462D01*
X160559523Y-28143462D02*
X160511904Y-28238700D01*
X160511904Y-28238700D02*
X160464285Y-28286319D01*
X160464285Y-28286319D02*
X160369047Y-28333938D01*
X160369047Y-28333938D02*
X159988095Y-28333938D01*
X160940476Y-27905367D02*
X160988095Y-27857748D01*
X160988095Y-27857748D02*
X161083333Y-27810129D01*
X161083333Y-27810129D02*
X161321428Y-27810129D01*
X161321428Y-27810129D02*
X161416666Y-27857748D01*
X161416666Y-27857748D02*
X161464285Y-27905367D01*
X161464285Y-27905367D02*
X161511904Y-28000605D01*
X161511904Y-28000605D02*
X161511904Y-28095843D01*
X161511904Y-28095843D02*
X161464285Y-28238700D01*
X161464285Y-28238700D02*
X160892857Y-28810129D01*
X160892857Y-28810129D02*
X161511904Y-28810129D01*
X161845238Y-27810129D02*
X162511904Y-27810129D01*
X162511904Y-27810129D02*
X162083333Y-28810129D01*
X184488095Y-36310129D02*
X184488095Y-35310129D01*
X184488095Y-35310129D02*
X184869047Y-35310129D01*
X184869047Y-35310129D02*
X184964285Y-35357748D01*
X184964285Y-35357748D02*
X185011904Y-35405367D01*
X185011904Y-35405367D02*
X185059523Y-35500605D01*
X185059523Y-35500605D02*
X185059523Y-35643462D01*
X185059523Y-35643462D02*
X185011904Y-35738700D01*
X185011904Y-35738700D02*
X184964285Y-35786319D01*
X184964285Y-35786319D02*
X184869047Y-35833938D01*
X184869047Y-35833938D02*
X184488095Y-35833938D01*
X185916666Y-35643462D02*
X185916666Y-36310129D01*
X185678571Y-35262510D02*
X185440476Y-35976795D01*
X185440476Y-35976795D02*
X186059523Y-35976795D01*
D11*
X77176737Y-110382401D02*
X77176737Y-109382401D01*
X77176737Y-109858591D02*
X77748165Y-109858591D01*
X77748165Y-110382401D02*
X77748165Y-109382401D01*
X78176737Y-109477639D02*
X78224356Y-109430020D01*
X78224356Y-109430020D02*
X78319594Y-109382401D01*
X78319594Y-109382401D02*
X78557689Y-109382401D01*
X78557689Y-109382401D02*
X78652927Y-109430020D01*
X78652927Y-109430020D02*
X78700546Y-109477639D01*
X78700546Y-109477639D02*
X78748165Y-109572877D01*
X78748165Y-109572877D02*
X78748165Y-109668115D01*
X78748165Y-109668115D02*
X78700546Y-109810972D01*
X78700546Y-109810972D02*
X78129118Y-110382401D01*
X78129118Y-110382401D02*
X78748165Y-110382401D01*
X231412619Y-32416189D02*
X230412619Y-32416189D01*
X230412619Y-31749523D02*
X230412619Y-31559047D01*
X230412619Y-31559047D02*
X230460238Y-31463809D01*
X230460238Y-31463809D02*
X230555476Y-31368571D01*
X230555476Y-31368571D02*
X230745952Y-31320952D01*
X230745952Y-31320952D02*
X231079285Y-31320952D01*
X231079285Y-31320952D02*
X231269761Y-31368571D01*
X231269761Y-31368571D02*
X231365000Y-31463809D01*
X231365000Y-31463809D02*
X231412619Y-31559047D01*
X231412619Y-31559047D02*
X231412619Y-31749523D01*
X231412619Y-31749523D02*
X231365000Y-31844761D01*
X231365000Y-31844761D02*
X231269761Y-31939999D01*
X231269761Y-31939999D02*
X231079285Y-31987618D01*
X231079285Y-31987618D02*
X230745952Y-31987618D01*
X230745952Y-31987618D02*
X230555476Y-31939999D01*
X230555476Y-31939999D02*
X230460238Y-31844761D01*
X230460238Y-31844761D02*
X230412619Y-31749523D01*
X230412619Y-30987618D02*
X231412619Y-30320952D01*
X230412619Y-30320952D02*
X231412619Y-30987618D01*
X230412619Y-30035237D02*
X230412619Y-29416190D01*
X230412619Y-29416190D02*
X230793571Y-29749523D01*
X230793571Y-29749523D02*
X230793571Y-29606666D01*
X230793571Y-29606666D02*
X230841190Y-29511428D01*
X230841190Y-29511428D02*
X230888809Y-29463809D01*
X230888809Y-29463809D02*
X230984047Y-29416190D01*
X230984047Y-29416190D02*
X231222142Y-29416190D01*
X231222142Y-29416190D02*
X231317380Y-29463809D01*
X231317380Y-29463809D02*
X231365000Y-29511428D01*
X231365000Y-29511428D02*
X231412619Y-29606666D01*
X231412619Y-29606666D02*
X231412619Y-29892380D01*
X231412619Y-29892380D02*
X231365000Y-29987618D01*
X231365000Y-29987618D02*
X231317380Y-30035237D01*
D13*
X304320000Y-28160000D02*
X268640000Y-28160000D01*
X268640000Y-28160000D02*
X268640000Y-33460000D01*
X304320000Y-29810000D02*
X304320000Y-28160000D01*
X304320000Y-33460000D02*
X304320000Y-31810000D01*
X268640000Y-33460000D02*
X304320000Y-33460000D01*
X304320000Y-29810000D02*
G75*
G03*
X304320000Y-31810000I0J-1000000D01*
G01*
X159600000Y-62850000D02*
X187000000Y-62850000D01*
X159600000Y-90150000D02*
X159600000Y-62850000D01*
X160022000Y-66145000D02*
X183122000Y-66145000D01*
X160022000Y-82745000D02*
X160022000Y-66145000D01*
X168301000Y-63339000D02*
X168301000Y-65752000D01*
X168301000Y-63339000D02*
X178080000Y-63339000D01*
X178080000Y-63339000D02*
X178080000Y-65752000D01*
X178080000Y-65752000D02*
X168301000Y-65752000D01*
X183122000Y-66145000D02*
X186208000Y-66145000D01*
X183122000Y-82745000D02*
X160022000Y-82745000D01*
X183122000Y-82745000D02*
X186462000Y-82770000D01*
X186462000Y-66133000D02*
X186208000Y-66145000D01*
X186462000Y-82770000D02*
X186462000Y-66133000D01*
X187000000Y-62850000D02*
X187000000Y-90150000D01*
X187000000Y-90150000D02*
X159600000Y-90150000D01*
X152190000Y-28610000D02*
X116510000Y-28610000D01*
X116510000Y-28610000D02*
X116510000Y-33910000D01*
X152190000Y-30260000D02*
X152190000Y-28610000D01*
X152190000Y-33910000D02*
X152190000Y-32260000D01*
X116510000Y-33910000D02*
X152190000Y-33910000D01*
X152190000Y-30260000D02*
G75*
G03*
X152190000Y-32260000I0J-1000000D01*
G01*
X41800000Y-33840000D02*
X77480000Y-33840000D01*
X77480000Y-33840000D02*
X77480000Y-28540000D01*
X41800000Y-32190000D02*
X41800000Y-33840000D01*
X41800000Y-28540000D02*
X41800000Y-30190000D01*
X77480000Y-28540000D02*
X41800000Y-28540000D01*
X41800000Y-32190000D02*
G75*
G03*
X41800000Y-30190000I0J1000000D01*
G01*
D14*
X164250000Y-23604890D02*
X164250000Y-43932510D01*
X164250000Y-43932510D02*
X182047780Y-43932510D01*
X164920560Y-22934330D02*
X164250000Y-23604890D01*
D15*
X167933000Y-22850510D02*
X169711000Y-22850510D01*
X167933000Y-25517510D02*
X167933000Y-22850510D01*
X167933000Y-25517510D02*
X169711000Y-25517510D01*
X167933000Y-26914510D02*
X169711000Y-26914510D01*
X167933000Y-29584050D02*
X167933000Y-26914510D01*
X167933000Y-29584050D02*
X169711000Y-29584050D01*
X169711000Y-25517510D02*
X169711000Y-22850510D01*
X169711000Y-29584050D02*
X169711000Y-26914510D01*
X170600000Y-23612510D02*
X175680000Y-23612510D01*
X170600000Y-26152510D02*
X170600000Y-23612510D01*
X170600000Y-26152510D02*
X175680000Y-26152510D01*
X170600000Y-40757510D02*
X176315000Y-40757510D01*
X170600000Y-43297510D02*
X170600000Y-40757510D01*
X170600000Y-43297510D02*
X176315000Y-43297510D01*
X175680000Y-26152510D02*
X175680000Y-23612510D01*
X176315000Y-43297510D02*
X176315000Y-40757510D01*
X176569000Y-22850510D02*
X178347000Y-22850510D01*
X176569000Y-25517510D02*
X176569000Y-22850510D01*
X176569000Y-25517510D02*
X178347000Y-25517510D01*
X176569000Y-26914510D02*
X178347000Y-26914510D01*
X176569000Y-29584050D02*
X176569000Y-26914510D01*
X176569000Y-29584050D02*
X178347000Y-29584050D01*
D14*
X177643420Y-28862690D02*
X168644200Y-28862690D01*
D15*
X178347000Y-25517510D02*
X178347000Y-22850510D01*
X178347000Y-29584050D02*
X178347000Y-26914510D01*
D14*
X182047780Y-22934330D02*
X164920560Y-22934330D01*
X182047780Y-43932510D02*
X182047780Y-22934330D01*
D13*
X229950000Y-28290000D02*
X194270000Y-28290000D01*
X194270000Y-28290000D02*
X194270000Y-33590000D01*
X229950000Y-29940000D02*
X229950000Y-28290000D01*
X229950000Y-33590000D02*
X229950000Y-31940000D01*
X194270000Y-33590000D02*
X229950000Y-33590000D01*
X229950000Y-29940000D02*
G75*
G03*
X229950000Y-31940000I0J-1000000D01*
G01*
M02*
