M48
; DRILL file {KiCad 7.0.2} date Sun Nov 12 18:32:55 2023
; FORMAT={-:-/ absolute / metric / decimal}
; #@! TF.CreationDate,2023-11-12T18:32:55-08:00
; #@! TF.GenerationSoftware,Kicad,Pcbnew,7.0.2
; #@! TF.FileFunction,MixedPlating,1,2
FMAT,2
METRIC
; #@! TA.AperFunction,Plated,PTH,ViaDrill
T1C0.400
; #@! TA.AperFunction,Plated,PTH,ComponentDrill
T2C0.800
; #@! TA.AperFunction,Plated,PTH,ComponentDrill
T3C1.000
; #@! TA.AperFunction,Plated,PTH,ComponentDrill
T4C1.500
; #@! TA.AperFunction,Plated,PTH,ComponentDrill
T5C2.200
; #@! TA.AperFunction,NonPlated,NPTH,ComponentDrill
T6C5.000
%
G90
G05
T1
X47.25Y-51.25
X47.25Y-70.25
X47.25Y-89.25
X47.25Y-108.25
X47.5Y-127.5
X55.0Y-48.25
X56.5Y-53.5
X56.75Y-30.5
X57.0Y-32.25
X59.0Y-73.75
X59.75Y-51.5
X59.75Y-54.0
X62.25Y-90.25
X62.5Y-48.75
X62.5Y-78.25
X63.75Y-47.0
X64.25Y-29.25
X65.0Y-54.75
X66.5Y-29.25
X66.5Y-33.0
X66.5Y-70.75
X66.5Y-108.75
X66.5Y-127.75
X71.5Y-29.5
X73.25Y-38.5
X73.75Y-37.5
X74.25Y-29.5
X75.5Y-32.5
X77.0Y-25.5
X80.25Y-32.25
X84.75Y-70.75
X85.0Y-51.5
X85.0Y-108.5
X85.0Y-127.75
X92.25Y-30.5
X93.75Y-35.25
X104.0Y-127.75
X104.25Y-108.5
X104.5Y-51.25
X104.5Y-70.5
X104.5Y-89.75
X112.75Y-31.75
X113.75Y-35.0
X116.75Y-92.5
X119.25Y-92.5
X120.75Y-33.25
X123.0Y-127.75
X123.25Y-33.0
X123.25Y-70.0
X123.25Y-89.75
X123.25Y-108.5
X123.5Y-51.25
X128.5Y-33.25
X128.75Y-29.25
X131.0Y-33.25
X131.5Y-38.25
X131.5Y-74.75
X131.926Y-111.974
X132.0Y-113.5
X132.356Y-92.5
X135.0Y-38.25
X135.25Y-110.75
X135.5Y-113.5
X136.0Y-75.5
X136.0Y-92.5
X142.0Y-70.75
X142.25Y-89.5
X142.5Y-51.5
X142.5Y-127.75
X143.25Y-109.0
X150.25Y-75.5
X150.5Y-40.0
X151.75Y-113.5
X152.75Y-74.25
X153.0Y-41.25
X154.25Y-112.25
X154.75Y-24.5
X159.5Y-124.5
X161.0Y-106.25
X166.0Y-64.25
X169.5Y-33.25
X171.0Y-30.75
X176.75Y-37.25
X177.5Y-42.25
X178.0Y-29.5
X178.75Y-124.5
X180.25Y-108.75
X185.75Y-32.0
X186.25Y-29.5
X187.0Y-32.0
X187.5Y-29.5
X188.25Y-32.0
X188.75Y-29.5
X189.5Y-32.0
X190.0Y-29.5
X190.75Y-26.75
X190.75Y-32.0
X192.25Y-26.75
X192.25Y-32.0
X196.25Y-87.0
X196.5Y-36.5
X196.5Y-48.25
X197.5Y-124.5
X198.25Y-106.25
X199.25Y-71.0
X201.5Y-32.75
X205.0Y-29.25
X205.0Y-36.5
X207.5Y-36.5
X207.75Y-40.0
X209.25Y-32.0
X210.75Y-31.75
X214.5Y-106.25
X215.0Y-87.0
X216.25Y-54.5
X217.5Y-124.5
X218.25Y-31.75
X218.5Y-29.75
X218.5Y-71.0
X220.5Y-29.0
X227.25Y-54.25
X227.25Y-56.25
X228.5Y-54.25
X228.5Y-56.25
X229.75Y-54.25
X229.75Y-56.25
X231.0Y-26.0
X231.0Y-54.25
X231.0Y-56.25
X232.25Y-26.0
X233.5Y-26.0
X233.5Y-106.25
X233.75Y-67.75
X234.0Y-87.25
X234.25Y-48.5
X234.75Y-124.5
X235.0Y-26.0
X236.75Y-26.0
X253.0Y-124.5
X253.25Y-86.75
X253.25Y-106.0
X253.5Y-48.5
X253.5Y-67.5
X264.25Y-31.75
X264.25Y-35.5
X265.25Y-31.75
X265.25Y-35.5
X271.75Y-106.0
X272.25Y-48.75
X272.25Y-124.5
X272.75Y-67.5
X272.75Y-86.75
X276.0Y-36.25
X279.25Y-29.0
X281.25Y-32.5
X282.5Y-40.25
X282.75Y-32.5
X283.25Y-67.0
X283.31Y-37.5
X286.0Y-64.75
X287.0Y-39.0
X288.5Y-49.0
X288.5Y-36.75
X291.0Y-86.75
X291.0Y-124.75
X291.25Y-48.0
X291.25Y-105.75
X291.75Y-67.5
X294.0Y-37.0
X294.5Y-51.75
X296.5Y-37.5
T2
X43.13Y-27.38
X43.13Y-35.0
X45.67Y-27.38
X45.67Y-35.0
X48.21Y-27.38
X48.21Y-35.0
X50.75Y-27.38
X50.75Y-35.0
X53.29Y-27.38
X53.29Y-35.0
X55.83Y-27.38
X55.83Y-35.0
X58.37Y-27.38
X58.37Y-35.0
X60.91Y-27.38
X60.91Y-35.0
X63.45Y-27.38
X63.45Y-35.0
X65.99Y-27.38
X65.99Y-35.0
X68.53Y-27.38
X68.53Y-35.0
X71.07Y-27.38
X71.07Y-35.0
X73.61Y-27.38
X73.61Y-35.0
X76.15Y-27.38
X76.15Y-35.0
X117.84Y-27.45
X117.84Y-35.07
X120.38Y-27.45
X120.38Y-35.07
X122.92Y-27.45
X122.92Y-35.07
X125.46Y-27.45
X125.46Y-35.07
X128.0Y-27.45
X128.0Y-35.07
X130.54Y-27.45
X130.54Y-35.07
X133.08Y-27.45
X133.08Y-35.07
X135.62Y-27.45
X135.62Y-35.07
X138.16Y-27.45
X138.16Y-35.07
X140.7Y-27.45
X140.7Y-35.07
X143.24Y-27.45
X143.24Y-35.07
X145.78Y-27.45
X145.78Y-35.07
X148.32Y-27.45
X148.32Y-35.07
X150.86Y-27.45
X150.86Y-35.07
X195.6Y-27.13
X195.6Y-34.75
X198.14Y-27.13
X198.14Y-34.75
X200.68Y-27.13
X200.68Y-34.75
X203.22Y-27.13
X203.22Y-34.75
X205.76Y-27.13
X205.76Y-34.75
X208.3Y-27.13
X208.3Y-34.75
X210.84Y-27.13
X210.84Y-34.75
X213.38Y-27.13
X213.38Y-34.75
X215.92Y-27.13
X215.92Y-34.75
X218.46Y-27.13
X218.46Y-34.75
X221.0Y-27.13
X221.0Y-34.75
X223.54Y-27.13
X223.54Y-34.75
X226.08Y-27.13
X226.08Y-34.75
X228.62Y-27.13
X228.62Y-34.75
X269.97Y-27.0
X269.97Y-34.62
X272.51Y-27.0
X272.51Y-34.62
X275.05Y-27.0
X275.05Y-34.62
X277.59Y-27.0
X277.59Y-34.62
X280.13Y-27.0
X280.13Y-34.62
X282.67Y-27.0
X282.67Y-34.62
X285.21Y-27.0
X285.21Y-34.62
X287.75Y-27.0
X287.75Y-34.62
X290.29Y-27.0
X290.29Y-34.62
X292.83Y-27.0
X292.83Y-34.62
X295.37Y-27.0
X295.37Y-34.62
X297.91Y-27.0
X297.91Y-34.62
X300.45Y-27.0
X300.45Y-34.62
X302.99Y-27.0
X302.99Y-34.62
T3
X169.38Y-64.55
X171.92Y-64.55
X174.46Y-64.55
X177.0Y-64.55
T4
X44.939Y-50.67
X44.939Y-69.72
X44.939Y-88.77
X44.939Y-107.82
X44.939Y-126.87
X51.939Y-51.72
X51.939Y-70.77
X51.939Y-89.82
X51.939Y-108.87
X51.939Y-127.92
X63.989Y-50.67
X63.989Y-69.72
X63.989Y-88.77
X63.989Y-107.82
X63.989Y-126.87
X70.989Y-51.72
X70.989Y-70.77
X70.989Y-89.82
X70.989Y-108.87
X70.989Y-127.92
X83.039Y-50.67
X83.039Y-69.72
X83.039Y-88.77
X83.039Y-107.82
X83.039Y-126.87
X90.039Y-51.72
X90.039Y-70.77
X90.039Y-89.82
X90.039Y-108.87
X90.039Y-127.92
X102.089Y-50.67
X102.089Y-69.72
X102.089Y-88.77
X102.089Y-107.82
X102.089Y-126.87
X109.089Y-51.72
X109.089Y-70.77
X109.089Y-89.82
X109.089Y-108.87
X109.089Y-127.92
X121.139Y-50.67
X121.139Y-69.72
X121.139Y-88.77
X121.139Y-107.82
X121.139Y-126.87
X128.139Y-51.72
X128.139Y-70.77
X128.139Y-89.82
X128.139Y-108.87
X128.139Y-127.92
X140.189Y-50.67
X140.189Y-69.72
X140.189Y-88.77
X140.189Y-107.82
X140.189Y-126.87
X147.189Y-51.72
X147.189Y-70.77
X147.189Y-89.82
X147.189Y-108.87
X147.189Y-127.92
X159.15Y-107.65
X159.15Y-126.7
X166.15Y-108.7
X166.15Y-127.75
X178.2Y-107.65
X178.2Y-126.7
X185.2Y-108.7
X185.2Y-127.75
X197.16Y-88.735
X197.16Y-107.785
X197.16Y-126.835
X197.16Y-50.635
X197.16Y-69.685
X204.16Y-89.785
X204.16Y-108.835
X204.16Y-127.885
X204.16Y-51.685
X204.16Y-70.735
X216.21Y-88.735
X216.21Y-107.785
X216.21Y-126.835
X216.21Y-50.635
X216.21Y-69.685
X223.21Y-89.785
X223.21Y-108.835
X223.21Y-127.885
X223.21Y-51.685
X223.21Y-70.735
X235.26Y-88.735
X235.26Y-107.785
X235.26Y-126.835
X235.26Y-50.635
X235.26Y-69.685
X242.26Y-89.785
X242.26Y-108.835
X242.26Y-127.885
X242.26Y-51.685
X242.26Y-70.735
X254.31Y-88.735
X254.31Y-107.785
X254.31Y-126.835
X254.31Y-50.635
X254.31Y-69.685
X261.31Y-89.785
X261.31Y-108.835
X261.31Y-127.885
X261.31Y-51.685
X261.31Y-70.735
X273.36Y-88.735
X273.36Y-107.785
X273.36Y-126.835
X273.36Y-50.635
X273.36Y-69.685
X280.36Y-89.785
X280.36Y-108.835
X280.36Y-127.885
X280.36Y-51.685
X280.36Y-70.735
X292.41Y-88.735
X292.41Y-107.785
X292.41Y-126.835
X292.41Y-50.635
X292.41Y-69.685
X299.41Y-89.785
X299.41Y-108.835
X299.41Y-127.885
X299.41Y-51.685
X299.41Y-70.735
T5
X77.939Y-74.57
X77.939Y-112.67
X159.5Y-93.0
X187.0Y-93.0
X249.21Y-112.635
X249.21Y-55.485
T6
X49.339Y-45.97
X49.339Y-65.02
X49.339Y-84.07
X49.339Y-103.12
X49.339Y-122.17
X68.389Y-45.97
X68.389Y-65.02
X68.389Y-84.07
X68.389Y-103.12
X68.389Y-122.17
X87.439Y-45.97
X87.439Y-65.02
X87.439Y-84.07
X87.439Y-103.12
X87.439Y-122.17
X106.489Y-45.97
X106.489Y-65.02
X106.489Y-84.07
X106.489Y-103.12
X106.489Y-122.17
X125.539Y-45.97
X125.539Y-65.02
X125.539Y-84.07
X125.539Y-103.12
X125.539Y-122.17
X144.589Y-45.97
X144.589Y-65.02
X144.589Y-84.07
X144.589Y-103.12
X144.589Y-122.17
X163.55Y-102.95
X163.55Y-122.0
X182.6Y-102.95
X182.6Y-122.0
X201.56Y-84.035
X201.56Y-103.085
X201.56Y-122.135
X201.56Y-45.935
X201.56Y-64.985
X220.61Y-84.035
X220.61Y-103.085
X220.61Y-122.135
X220.61Y-45.935
X220.61Y-64.985
X239.66Y-84.035
X239.66Y-103.085
X239.66Y-122.135
X239.66Y-45.935
X239.66Y-64.985
X258.71Y-84.035
X258.71Y-103.085
X258.71Y-122.135
X258.71Y-45.935
X258.71Y-64.985
X277.76Y-84.035
X277.76Y-103.085
X277.76Y-122.135
X277.76Y-45.935
X277.76Y-64.985
X296.81Y-84.035
X296.81Y-103.085
X296.81Y-122.135
X296.81Y-45.935
X296.81Y-64.985
T0
M30
